<svg width="70" height="70" viewBox="0 0 70 70" fill="none" xmlns="http://www.w3.org/2000/svg">
<g clip-path="url(#clip0)">
<path d="M-0.00231934 35.0024C-0.00231934 54.3008 15.6985 70.0018 34.9983 70.0018C54.2979 70.0018 69.9977 54.3022 69.9977 35.0024C69.9977 15.7029 54.2979 0.00183105 34.9983 0.00183105C15.6985 0.00183105 -0.00231934 15.7041 -0.00231934 35.0024ZM28.0934 20.7024L31.9309 24.5364C32.8254 25.4322 32.8254 26.8752 31.9309 27.7687L30.5553 29.1456C30.4308 29.2694 30.3638 29.4217 30.3209 29.5813C29.3801 30.8502 29.4717 32.6456 30.619 33.7942L36.2029 39.378C37.3514 40.5291 39.1493 40.6212 40.4158 39.6774C40.5754 39.6345 40.7264 39.5663 40.8515 39.4449L42.2283 38.065C43.1216 37.1741 44.5674 37.1716 45.4584 38.065L49.2971 41.9012C50.1904 42.7978 50.1904 44.2402 49.2971 45.1337L46.5408 47.8883C43.1268 51.3068 37.5674 51.3041 34.1516 47.8883L22.1102 35.8457C18.6956 32.4296 18.6956 26.8717 22.1102 23.4563L24.8635 20.7024C25.7579 19.8091 27.2017 19.8091 28.0934 20.7024Z" fill="white"/>
</g>
<defs>
<clipPath id="clip0">
<rect width="70" height="70" fill="white"/>
</clipPath>
</defs>
</svg>
