<svg width="700" height="700" viewBox="0 0 700 700" fill="none" xmlns="http://www.w3.org/2000/svg">
<path d="M354.969 674.352C539.516 674.352 689.121 597.763 689.121 503.286C689.121 408.809 539.516 332.22 354.969 332.22C170.422 332.22 20.8174 408.809 20.8174 503.286C20.8174 597.763 170.422 674.352 354.969 674.352Z" fill="#FAFAFA"/>
<path d="M545.468 613.718C595.749 613.718 636.51 588.539 636.51 557.48C636.51 526.421 595.749 501.242 545.468 501.242C495.187 501.242 454.426 526.421 454.426 557.48C454.426 588.539 495.187 613.718 545.468 613.718Z" fill="#E0E0E0"/>
<path d="M329.35 456.568L271.012 422.898C270.043 422.402 268.971 422.143 267.883 422.143C266.795 422.143 265.722 422.402 264.754 422.898L71.3998 534.548C71.0209 534.674 70.6914 534.917 70.4579 535.241C70.2244 535.565 70.0988 535.954 70.0988 536.354C70.0988 536.753 70.2244 537.143 70.4579 537.467C70.6914 537.791 71.0209 538.033 71.3998 538.16L129.724 571.844C130.695 572.329 131.767 572.582 132.853 572.582C133.939 572.582 135.01 572.329 135.982 571.844L153.216 561.89L312.102 470.4L329.364 460.25C329.754 460.124 330.094 459.877 330.335 459.546C330.575 459.214 330.704 458.814 330.703 458.404C330.701 457.994 330.569 457.595 330.326 457.265C330.083 456.935 329.741 456.691 329.35 456.568Z" fill="#E0E0E0"/>
<path d="M591.599 536.564L582.583 531.776C582.583 531.776 583.465 487.76 592.593 453.67C601.944 418.768 629.16 380.212 654.878 394.66C680.596 409.108 634.887 438.802 621.139 467.46C607.391 496.118 591.599 536.564 591.599 536.564Z" fill="#97C7FF"/>
<path opacity="0.15" d="M591.599 536.564L582.583 531.776C582.583 531.776 583.465 487.76 592.593 453.67C601.944 418.768 629.16 380.212 654.878 394.66C680.596 409.108 634.887 438.802 621.139 467.46C607.391 496.118 591.599 536.564 591.599 536.564Z" fill="black"/>
<path d="M590.408 526.12C590.289 526.116 590.171 526.089 590.062 526.04C589.953 525.991 589.855 525.921 589.773 525.834C589.691 525.747 589.627 525.644 589.585 525.532C589.542 525.42 589.522 525.301 589.526 525.182C591.458 456.876 621.32 415.17 646.31 400.218C646.518 400.094 646.767 400.057 647.002 400.116C647.237 400.175 647.439 400.325 647.563 400.533C647.687 400.741 647.724 400.99 647.665 401.225C647.606 401.46 647.456 401.662 647.248 401.786C622.65 416.5 593.264 457.66 591.346 525.224C591.344 525.345 591.318 525.464 591.27 525.574C591.222 525.685 591.152 525.785 591.065 525.868C590.977 525.952 590.874 526.017 590.762 526.06C590.649 526.103 590.529 526.124 590.408 526.12Z" fill="white"/>
<path d="M595.672 538.664L587.622 534.534C587.622 534.534 588.616 512.918 605.178 484.75C619.878 459.732 649.67 440.132 662.186 447.118C671.902 452.522 674.142 464.366 664.832 472.248C655.522 480.13 612.542 496.664 595.672 538.664Z" fill="#97C7FF"/>
<path d="M592.438 531.762C593.838 532.042 594.328 528.584 594.608 527.702C595.14 526.05 595.7 524.426 596.316 522.802C597.522 519.644 598.891 516.55 600.418 513.534C603.359 507.733 606.802 502.2 610.708 497C614.359 492.132 618.34 487.52 622.622 483.196C626.486 479.308 630.552 475.626 634.802 472.164C638.358 469.252 642.054 466.494 645.848 463.904C648.648 462 651.448 460.18 654.374 458.472C655.9 457.576 657.426 456.694 659.008 455.882L659.456 455.658C659.707 455.536 659.899 455.318 659.989 455.055C660.08 454.791 660.062 454.502 659.939 454.251C659.817 454 659.6 453.809 659.336 453.718C659.072 453.628 658.783 453.645 658.532 453.768C657.552 454.244 656.614 454.776 655.732 455.308C653.268 456.708 650.86 458.108 648.494 459.676C644.985 461.944 641.56 464.343 638.218 466.872C634.074 470.008 630.094 473.335 626.276 476.854C621.925 480.839 617.829 485.094 614.012 489.594C609.875 494.446 606.13 499.619 602.812 505.064C599.284 510.827 596.329 516.923 593.992 523.264C593.554 524.487 593.134 525.705 592.732 526.918C592.144 528.129 591.787 529.44 591.682 530.782C591.7 530.995 591.775 531.2 591.901 531.373C592.027 531.546 592.199 531.68 592.396 531.762H592.438Z" fill="white"/>
<path d="M135.576 498.176C135.576 498.176 135.8 470.722 125.006 448C114.212 425.278 97.328 409.906 80.206 406.392C63.084 402.878 47.292 417.018 64.372 430.192C81.452 443.366 112.826 458.612 122.85 501.284L135.576 498.176Z" fill="#97C7FF"/>
<path opacity="0.15" d="M135.576 498.176C135.576 498.176 135.8 470.722 125.006 448C114.212 425.278 97.328 409.906 80.206 406.392C63.084 402.878 47.292 417.018 64.372 430.192C81.452 443.366 112.826 458.612 122.85 501.284L135.576 498.176Z" fill="black"/>
<path d="M128.436 493.43C128.258 493.43 128.086 493.362 127.955 493.24C127.825 493.118 127.747 492.95 127.736 492.772C125.104 448.826 88.9001 420.252 71.0081 415.38C70.8304 415.331 70.6793 415.214 70.5876 415.054C70.4959 414.894 70.4709 414.704 70.5181 414.526C70.5674 414.345 70.6861 414.19 70.8486 414.096C71.0111 414.002 71.2042 413.975 71.3861 414.022C89.5861 418.992 126.462 448.042 129.136 492.688C129.14 492.872 129.075 493.051 128.953 493.188C128.831 493.326 128.661 493.412 128.478 493.43H128.436Z" fill="white"/>
<path d="M137.788 535.864C141.256 531.488 143.583 526.318 144.561 520.82C145.538 515.322 145.135 509.668 143.388 504.364C142.371 501.161 140.746 498.186 138.6 495.6C136.878 493.57 134.4 492.52 132.384 490.826C128.044 487.228 123.004 483.406 121.436 477.694C120.176 473.144 120.442 468.832 117.922 464.562C116.437 461.888 114.072 459.811 111.23 458.682C107.52 457.282 103.432 458.206 99.5117 458.682C93.9117 459.312 89.7117 457.38 84.8677 454.804C79.5337 452.004 73.3037 449.792 67.5217 451.514C65.6412 452.071 63.8988 453.017 62.4074 454.291C60.9159 455.564 59.7087 457.137 58.864 458.907C58.0192 460.677 57.5558 462.605 57.5037 464.566C57.4516 466.526 57.8121 468.476 58.5617 470.288C59.8497 473.424 62.2297 475.972 63.9797 478.884C65.7297 481.796 66.6537 485.128 65.3797 488.306C64.3997 490.658 62.5797 492.506 61.8517 494.9C59.7797 501.2 60.9417 506.8 67.1997 510.048C73.7377 513.394 83.9997 510.874 87.2757 519.092C88.5077 522.214 88.5497 525.672 89.2217 528.962C90.601 535.583 94.4507 541.43 99.9877 545.314C107.506 550.536 117.712 549.262 125.51 545.622C130.3 543.36 134.503 540.021 137.788 535.864Z" fill="#97C7FF"/>
<path d="M78.8476 496.104C79.0006 496.13 79.1579 496.105 79.2956 496.034C84.8097 493.903 90.7273 493.018 96.6238 493.444C102.52 493.87 108.249 495.596 113.4 498.498C113.576 498.592 113.783 498.613 113.974 498.555C114.166 498.497 114.327 498.366 114.422 498.19C114.471 498.104 114.502 498.009 114.514 497.91C114.526 497.812 114.518 497.712 114.49 497.617C114.463 497.522 114.417 497.433 114.354 497.356C114.292 497.279 114.215 497.215 114.128 497.168C108.777 494.163 102.826 492.381 96.7042 491.95C90.5822 491.519 84.4408 492.45 78.7216 494.676C78.5871 494.75 78.4783 494.863 78.4095 495C78.3407 495.137 78.3153 495.292 78.3365 495.444C78.3578 495.596 78.4248 495.737 78.5286 495.85C78.6323 495.963 78.768 496.042 78.9176 496.076L78.8476 496.104Z" fill="white"/>
<path d="M127.736 536.102C127.553 536.106 127.375 536.038 127.242 535.912C127.108 535.786 127.03 535.613 127.022 535.43C125.72 503.79 93.9543 470.33 72.6603 461.23C72.5743 461.195 72.4961 461.143 72.4304 461.077C72.3647 461.012 72.3128 460.933 72.2776 460.847C72.2424 460.761 72.2247 460.669 72.2255 460.576C72.2263 460.483 72.2456 460.392 72.2823 460.306C72.3589 460.134 72.5005 459.999 72.6762 459.931C72.852 459.863 73.0475 459.867 73.2203 459.942C94.8503 469.21 127.106 503.23 128.436 535.402C128.44 535.496 128.425 535.589 128.393 535.678C128.36 535.766 128.311 535.846 128.247 535.915C128.183 535.984 128.107 536.04 128.021 536.079C127.936 536.118 127.844 536.14 127.75 536.144L127.736 536.102Z" fill="white"/>
<path d="M303.073 84.0002L144.621 175.448C143.051 176.472 141.747 177.854 140.815 179.48C139.883 181.105 139.35 182.929 139.259 184.8V557.942C139.259 561.358 141.667 562.744 144.621 561.022L303.073 469.546C304.631 468.524 305.928 467.151 306.859 465.536C307.791 463.921 308.33 462.111 308.435 460.25V87.0522C308.435 83.6362 306.027 82.2362 303.073 84.0002ZM300.721 432.6C300.721 435.526 298.663 437.388 296.129 438.844L151.033 522.648C148.513 524.048 146.441 522.928 146.441 519.988V209.678C146.441 208.074 146.865 206.498 147.668 205.109C148.472 203.72 149.628 202.568 151.019 201.768L296.115 117.95C296.58 117.68 297.109 117.537 297.647 117.535C298.186 117.534 298.715 117.675 299.182 117.943C299.649 118.211 300.037 118.597 300.307 119.063C300.577 119.529 300.72 120.058 300.721 120.596V432.6Z" fill="#455A64"/>
<path d="M300.72 432.6C300.72 435.526 298.662 437.388 296.128 438.844L151.032 522.648C148.512 524.048 146.44 522.928 146.44 519.988V209.678C146.44 208.074 146.864 206.498 147.667 205.109C148.471 203.72 149.627 202.568 151.018 201.768L296.114 117.95C296.579 117.68 297.108 117.537 297.646 117.535C298.185 117.534 298.714 117.675 299.181 117.943C299.648 118.211 300.036 118.597 300.306 119.063C300.576 119.529 300.719 120.058 300.72 120.596V432.6Z" fill="#263238"/>
<path d="M151.032 522.648L296.128 438.872C297.146 438.322 298.088 437.639 298.928 436.842L146.44 350.966V519.988C146.44 522.928 148.512 524.104 151.032 522.648Z" fill="#37474F"/>
<path d="M288.974 427.154V122.08L151.018 201.768C149.627 202.568 148.471 203.72 147.667 205.109C146.864 206.498 146.44 208.074 146.44 209.678V513.044L284.382 433.398C286.916 431.942 288.974 430.08 288.974 427.154Z" fill="#97C7FF"/>
<path d="M143.948 561.4C142.348 562.075 140.621 562.394 138.885 562.336C137.15 562.278 135.447 561.844 133.896 561.064L127.764 557.522C126.199 556.509 124.896 555.14 123.962 553.526C123.028 551.913 122.488 550.102 122.388 548.24V175C122.423 173.617 122.738 172.255 123.312 170.996C123.508 170.562 123.718 170.142 123.956 169.708L140.756 179.508C140.403 180.139 140.094 180.794 139.832 181.468C139.424 182.528 139.202 183.651 139.174 184.786V557.942C139.258 561.092 141.302 562.52 143.948 561.4Z" fill="#263238"/>
<path d="M228.579 486.22C232.009 486.22 232.373 490.07 232.373 491.722C232.168 495.032 231.197 498.249 229.538 501.121C227.879 503.992 225.576 506.439 222.811 508.27C221.701 508.975 220.427 509.38 219.115 509.446C215.685 509.446 215.321 505.596 215.321 503.944C215.527 500.634 216.497 497.417 218.153 494.544C219.809 491.671 222.108 489.219 224.869 487.382C225.988 486.688 227.264 486.289 228.579 486.22Z" fill="#97C7FF"/>
<path d="M223.734 135.674C225.134 134.834 226.352 135.506 226.352 137.186C226.301 138.094 226.038 138.978 225.583 139.766C225.128 140.554 224.495 141.224 223.734 141.722C222.334 142.548 221.102 141.876 221.102 140.21C221.15 139.3 221.413 138.413 221.871 137.625C222.329 136.836 222.967 136.168 223.734 135.674Z" fill="#263238"/>
<path d="M206.822 157.78C208.11 157.038 209.146 157.64 209.146 159.18C209.104 159.986 208.871 160.77 208.467 161.468C208.063 162.167 207.499 162.759 206.822 163.198C205.534 163.94 204.498 163.338 204.498 161.798C204.543 160.993 204.777 160.21 205.181 159.512C205.584 158.814 206.147 158.22 206.822 157.78Z" fill="#263238"/>
<path d="M214.592 153.188L240.618 138.166C242.018 137.34 243.194 137.928 243.194 139.468C243.125 140.333 242.857 141.17 242.41 141.914C241.963 142.657 241.349 143.286 240.618 143.752L214.592 158.774C213.192 159.6 212.016 159.012 212.016 157.472C212.084 156.607 212.352 155.77 212.799 155.027C213.246 154.283 213.86 153.654 214.592 153.188Z" fill="#263238"/>
<path d="M308.378 86.1981C307.986 83.3981 305.76 82.4041 303.086 83.9581L144.606 175.448C143.02 176.433 141.717 177.812 140.826 179.452L124.026 169.652C124.931 168.025 126.237 166.657 127.82 165.676L286.202 74.2001C287.864 73.3576 289.701 72.9185 291.564 72.9185C293.427 72.9185 295.264 73.3576 296.926 74.2001L303.086 77.7281C304.521 78.6804 305.736 79.929 306.649 81.3899C307.562 82.8509 308.151 84.4904 308.378 86.1981Z" fill="#37474F"/>
<path d="M266.812 97.524C265.99 97.9632 265.075 98.2011 264.143 98.2182C263.211 98.2352 262.288 98.0309 261.45 97.622C261.17 97.5023 260.926 97.309 260.747 97.0626C260.567 96.8162 260.457 96.5258 260.428 96.222C260.428 95.83 260.428 94.374 260.428 93.968C260.473 93.6187 260.608 93.2868 260.819 93.0048C261.03 92.7227 261.31 92.4999 261.632 92.358L278.614 82.558C279.44 82.1219 280.357 81.8858 281.291 81.8688C282.224 81.8518 283.149 82.0543 283.99 82.46C284.266 82.5853 284.504 82.7804 284.68 83.0259C284.857 83.2715 284.967 83.559 284.998 83.86C284.998 84.266 284.998 85.778 284.998 86.17C284.954 86.5214 284.82 86.8555 284.609 87.14C284.398 87.4245 284.118 87.6498 283.794 87.794L266.812 97.524Z" fill="#97C7FF"/>
<path opacity="0.25" d="M266.812 97.524C265.99 97.9632 265.075 98.2011 264.143 98.2182C263.211 98.2352 262.288 98.0309 261.45 97.622C261.17 97.5023 260.926 97.309 260.747 97.0626C260.567 96.8162 260.457 96.5258 260.428 96.222C260.428 95.83 260.428 94.374 260.428 93.968C260.473 93.6187 260.608 93.2868 260.819 93.0048C261.03 92.7227 261.31 92.4999 261.632 92.358L278.614 82.558C279.44 82.1219 280.357 81.8858 281.291 81.8688C282.224 81.8518 283.149 82.0543 283.99 82.46C284.266 82.5853 284.504 82.7804 284.68 83.0259C284.857 83.2715 284.967 83.559 284.998 83.86C284.998 84.266 284.998 85.778 284.998 86.17C284.954 86.5214 284.82 86.8555 284.609 87.14C284.398 87.4245 284.118 87.6498 283.794 87.794L266.812 97.524Z" fill="black"/>
<path d="M266.812 95.298L283.794 85.498C285.334 84.602 285.404 83.216 283.976 82.39C283.135 81.9843 282.21 81.7818 281.276 81.7988C280.343 81.8158 279.426 82.0519 278.6 82.488L261.618 92.288C260.092 93.17 260.008 94.556 261.45 95.382C262.288 95.7897 263.209 95.9946 264.141 95.98C265.072 95.9654 265.987 95.7318 266.812 95.298Z" fill="#97C7FF"/>
<path opacity="0.3" d="M266.812 95.298L283.794 85.498C285.334 84.602 285.404 83.216 283.976 82.39C283.135 81.9843 282.21 81.7818 281.276 81.7988C280.343 81.8158 279.426 82.0519 278.6 82.488L261.618 92.288C260.092 93.17 260.008 94.556 261.45 95.382C262.288 95.7897 263.209 95.9946 264.141 95.98C265.072 95.9654 265.987 95.7318 266.812 95.298Z" fill="black"/>
<path d="M133.001 231.238C132.967 230.306 132.714 229.396 132.262 228.581C131.809 227.765 131.17 227.069 130.397 226.548C130.143 226.361 129.843 226.248 129.529 226.22C129.215 226.193 128.9 226.253 128.619 226.394C128.297 226.59 127.009 227.304 126.673 227.514C126.391 227.727 126.17 228.009 126.03 228.333C125.89 228.657 125.837 229.011 125.875 229.362V270.97C125.908 271.9 126.16 272.809 126.61 273.624C127.06 274.439 127.695 275.136 128.465 275.66C128.718 275.83 129.01 275.933 129.314 275.957C129.618 275.982 129.923 275.928 130.201 275.8C130.565 275.618 131.867 274.862 132.217 274.652C132.498 274.439 132.719 274.157 132.859 273.833C132.999 273.509 133.052 273.155 133.015 272.804L133.001 231.238Z" fill="#97C7FF"/>
<path opacity="0.3" d="M133.001 231.238C132.967 230.306 132.714 229.396 132.262 228.581C131.809 227.765 131.17 227.069 130.397 226.548C130.143 226.361 129.843 226.248 129.529 226.22C129.215 226.193 128.9 226.253 128.619 226.394C128.297 226.59 127.009 227.304 126.673 227.514C126.391 227.727 126.17 228.009 126.03 228.333C125.89 228.657 125.837 229.011 125.875 229.362V270.97C125.908 271.9 126.16 272.809 126.61 273.624C127.06 274.439 127.695 275.136 128.465 275.66C128.718 275.83 129.01 275.933 129.314 275.957C129.618 275.982 129.923 275.928 130.201 275.8C130.565 275.618 131.867 274.862 132.217 274.652C132.498 274.439 132.719 274.157 132.859 273.833C132.999 273.509 133.052 273.155 133.015 272.804L133.001 231.238Z" fill="black"/>
<path d="M131.069 232.4V274.008C131.069 275.772 129.907 276.528 128.465 275.702C127.696 275.178 127.061 274.481 126.611 273.666C126.161 272.851 125.909 271.942 125.875 271.012V229.362C125.875 227.584 127.037 226.828 128.465 227.654C129.244 228.182 129.887 228.888 130.34 229.713C130.792 230.538 131.042 231.459 131.069 232.4Z" fill="#97C7FF"/>
<path opacity="0.4" d="M131.069 232.4V274.008C131.069 275.772 129.907 276.528 128.465 275.702C127.696 275.178 127.061 274.481 126.611 273.666C126.161 272.851 125.909 271.942 125.875 271.012V229.362C125.875 227.584 127.037 226.828 128.465 227.654C129.244 228.182 129.887 228.888 130.34 229.713C130.792 230.538 131.042 231.459 131.069 232.4Z" fill="black"/>
<path d="M133.001 287C132.967 286.068 132.714 285.158 132.262 284.343C131.809 283.527 131.17 282.831 130.397 282.31C130.143 282.123 129.843 282.01 129.529 281.982C129.215 281.955 128.9 282.015 128.619 282.156C128.297 282.352 127.009 283.066 126.673 283.276C126.391 283.489 126.17 283.771 126.03 284.095C125.89 284.419 125.837 284.773 125.875 285.124V304.724C125.911 305.652 126.164 306.558 126.613 307.37C127.063 308.182 127.697 308.878 128.465 309.4C128.709 309.581 128.998 309.693 129.301 309.725C129.604 309.757 129.909 309.708 130.187 309.582C130.551 309.4 131.853 308.644 132.203 308.434C132.483 308.223 132.703 307.944 132.843 307.622C132.983 307.301 133.037 306.949 133.001 306.6V287Z" fill="#97C7FF"/>
<path opacity="0.3" d="M133.001 287C132.967 286.068 132.714 285.158 132.262 284.343C131.809 283.527 131.17 282.831 130.397 282.31C130.143 282.123 129.843 282.01 129.529 281.982C129.215 281.955 128.9 282.015 128.619 282.156C128.297 282.352 127.009 283.066 126.673 283.276C126.391 283.489 126.17 283.771 126.03 284.095C125.89 284.419 125.837 284.773 125.875 285.124V304.724C125.911 305.652 126.164 306.558 126.613 307.37C127.063 308.182 127.697 308.878 128.465 309.4C128.709 309.581 128.998 309.693 129.301 309.725C129.604 309.757 129.909 309.708 130.187 309.582C130.551 309.4 131.853 308.644 132.203 308.434C132.483 308.223 132.703 307.944 132.843 307.622C132.983 307.301 133.037 306.949 133.001 306.6V287Z" fill="black"/>
<path d="M131.069 288.05V307.65C131.069 309.414 129.907 310.184 128.465 309.344C127.696 308.82 127.061 308.123 126.611 307.308C126.161 306.493 125.909 305.584 125.875 304.654V285.054C125.875 283.29 127.037 282.52 128.465 283.346C129.237 283.872 129.875 284.571 130.327 285.388C130.779 286.205 131.034 287.117 131.069 288.05Z" fill="#97C7FF"/>
<path opacity="0.4" d="M131.069 288.05V307.65C131.069 309.414 129.907 310.184 128.465 309.344C127.696 308.82 127.061 308.123 126.611 307.308C126.161 306.493 125.909 305.584 125.875 304.654V285.054C125.875 283.29 127.037 282.52 128.465 283.346C129.237 283.872 129.875 284.571 130.327 285.388C130.779 286.205 131.034 287.117 131.069 288.05Z" fill="black"/>
<path d="M179.397 252.266C179.536 252.946 179.723 253.615 179.957 254.268C180.867 256.732 182.505 259.056 182.365 261.688C182.211 264.656 179.873 266.952 178.081 269.318C175.752 272.446 174.2 276.083 173.552 279.929C172.905 283.775 173.181 287.72 174.357 291.438C176.078 295.967 178.466 300.214 181.441 304.038L188.203 313.628C190.247 316.313 192.857 318.516 195.847 320.082C201.657 323.366 208.14 325.281 214.803 325.682C225.754 326.421 236.647 323.565 245.827 317.548C255.557 311.108 251.273 294.588 261.227 288.554C273.267 281.274 279.007 255.99 264.251 245.434C264.251 245.434 266.631 229.95 262.263 226.002C257.91 222.36 252.523 220.176 246.863 219.758C239.051 218.946 231.225 220.472 223.427 220.444C215.399 220.418 207.379 220.918 199.417 221.942C196.617 222.32 192.669 223.342 191.157 226.072C190.73 227.143 190.614 228.312 190.821 229.446C190.799 231.245 190.156 232.981 189.001 234.36C187.265 236.46 184.801 237.874 182.953 239.848C181.428 241.494 180.311 243.476 179.694 245.633C179.076 247.79 178.974 250.062 179.397 252.266Z" fill="#263238"/>
<path d="M257.096 274.61C269.696 274.96 271.334 277.648 282.618 288.82C291.998 298.102 323.078 326.788 323.078 326.788L360.318 336.7L351.526 359.422C351.526 359.422 343.126 359.072 326.326 359.058C316.008 359.058 312.424 356.748 302.036 349.818C296.744 346.276 266.882 326.732 266.882 326.732L257.096 274.61Z" fill="#E6E6E6"/>
<path d="M401.52 290.752L333.27 314.804L314.454 396.004L315.98 397.628L380.87 373.422L403.032 292.376L401.52 290.752Z" fill="#97C7FF"/>
<path opacity="0.35" d="M334.782 316.428L315.98 397.628L314.454 396.004L333.27 314.804L334.782 316.428Z" fill="black"/>
<path opacity="0.25" d="M403.033 292.376L334.783 316.428L315.981 397.628L380.871 373.422L403.033 292.376Z" fill="black"/>
<g opacity="0.2">
<path opacity="0.2" d="M370.72 356.902C371.35 358.498 376.586 362.012 384.16 361.382L385.434 356.706L370.72 356.902Z" fill="black"/>
</g>
<g opacity="0.1">
<path opacity="0.1" d="M382.48 309.008L383.04 306.278C383.348 304.78 379.344 305.564 374.094 308.042L361.774 311.766C356.524 314.244 351.568 316.092 351.246 317.59L350.686 320.306L382.48 309.008Z" fill="black"/>
</g>
<path d="M386.541 296.688C386.737 295.75 385.141 295.946 382.999 296.52L379.065 297.85C379.065 297.85 380.675 293.902 371.365 296.45C361.131 299.25 360.907 304.332 360.907 304.332C359.306 305.026 357.665 305.625 355.993 306.124C352.591 307.23 352.227 307.888 351.947 308.84L351.443 310.562L386.233 298.326C386.233 298.326 386.401 297.626 386.541 296.688Z" fill="#37474F"/>
<path d="M382.872 301.91C379.652 303.31 378.322 304.08 377.832 306.404C377.286 309.05 377.174 310.156 377.174 310.156L359.058 317.296C359.058 317.296 360.038 313.39 360.276 312.088C360.514 310.786 358.12 310.786 354.984 312.228L355.726 308.98L383.908 298.522L382.872 301.91Z" fill="#37474F"/>
<path d="M383.404 309.05C383.404 309.05 383.67 307.832 383.978 306.32C384.286 304.808 380.282 305.606 375.032 308.084L362.712 311.808C357.462 314.286 352.492 316.134 352.184 317.632L351.624 320.432L383.404 309.05Z" fill="#37474F"/>
<path d="M395.444 320.152C395.444 320.152 393.022 329.056 392.378 331.352C391.734 333.648 380.562 338.758 374.976 339.458C364.28 340.788 363.062 343.098 365.624 350.658C368.004 357.658 374.962 360.318 384.622 359.184C389.158 358.652 395.416 354.634 397.88 347.62C401.016 338.66 399.28 329.098 400.582 323.82C401.884 318.542 398.16 317.03 395.444 320.152Z" fill="#FFA8A7"/>
<path d="M289.689 442.596L282.451 446.796L279.413 448.546L239.597 471.52L234.165 474.6L224.995 479.892L227.795 451.318L233.143 395.99V395.416L233.395 392.938L240.395 320.6L243.461 288.946L244.539 277.592L244.903 273.924H245.099C248.341 273.022 251.768 273.022 255.011 273.924C255.733 274.143 256.436 274.424 257.111 274.764C261.311 276.85 264.111 280.91 266.435 285.18C267.006 286.22 267.52 287.29 267.975 288.386C269.701 292.536 271.032 296.839 271.951 301.238C273.785 309.358 276.151 317.66 277.089 330.75C277.236 334.119 277.058 337.495 276.557 340.83C275.926 349.655 275.818 358.509 276.235 367.346C277.411 387.366 282.451 396.438 289.689 442.596Z" fill="#E0E0E0"/>
<path d="M279.412 448.518L239.596 471.492L234.164 474.6L224.994 479.892L218.68 483.532L180.348 505.652C180.754 490.252 180.936 473.55 180.572 457.772C180.46 452.494 180.418 447.104 180.642 441.588C181.37 422.436 185.01 401.898 198.058 380.282L198.66 379.19C200.2 388.332 214.2 394.268 226.8 395.668L228.2 395.794C229.782 395.948 231.42 396.018 233.114 396.018H234.178C244.832 395.92 257.446 393.414 271.978 388.5C273.378 396.62 274.778 407.274 276.276 419.734C276.948 425.334 277.629 431.303 278.32 437.64C278.6 441.182 279.034 444.808 279.412 448.518Z" fill="#FFA8A7"/>
<path d="M282.45 446.768L279.412 448.518L239.596 471.492L234.164 474.6L224.994 479.892L218.68 483.532L180.348 505.652L176.148 508.074C176.358 491.498 176.498 475.258 176.484 465.066C176.484 455.588 176.694 447.16 177.212 439.684C178.234 424.928 180.362 413.826 183.918 405.426C188.091 396.233 193.027 387.405 198.674 379.036C198.674 379.036 202.174 390.852 228.354 392.714H228.522C230.062 392.826 231.686 392.896 233.394 392.924H235.382C267.974 392.924 271.572 384.706 271.572 384.706C274.756 396.79 277.275 409.04 279.118 421.4C279.809 425.768 280.476 430.435 281.12 435.4C281.596 439.04 282.044 442.82 282.45 446.768Z" fill="#97C7FF"/>
<path opacity="0.4" d="M282.45 446.768L279.412 448.518L239.596 471.492L234.164 474.6L224.994 479.892L218.68 483.532L180.348 505.652L176.148 508.074C176.358 491.498 176.498 475.258 176.484 465.066C176.484 455.588 176.694 447.16 177.212 439.684C178.234 424.928 180.362 413.826 183.918 405.426C188.091 396.233 193.027 387.405 198.674 379.036C198.674 379.036 202.174 390.852 228.354 392.714H228.522C230.062 392.826 231.686 392.896 233.394 392.924H235.382C267.974 392.924 271.572 384.706 271.572 384.706C274.756 396.79 277.275 409.04 279.118 421.4C279.809 425.768 280.476 430.435 281.12 435.4C281.596 439.04 282.044 442.82 282.45 446.768Z" fill="black"/>
<path opacity="0.2" d="M263.76 428.19C263.76 428.19 260.12 439.754 244.804 446.236L244.076 449.778L239.596 471.492L234.164 474.6L237.412 450.646L238.812 440.23C248.277 439.248 257.102 434.989 263.76 428.19Z" fill="black"/>
<path d="M217.182 277.27L201.782 278.894C191.59 281.386 186.984 285.894 185.934 294.896C185.444 299.096 182.91 310.296 186.466 324.296C189.686 337.008 198.282 368.116 198.282 368.116C198.282 368.116 178.5 393.932 174.916 438.2C211.12 461.832 266.658 449.134 281.68 434.854C280.42 421.33 271.782 384.216 270.704 372.162C270.704 372.162 271.502 353.332 273 345.17C284.452 332.668 282.996 320.712 277.858 311.066C268.366 293.258 254.058 277.606 249.424 277.62L217.182 277.27Z" fill="#97C7FF"/>
<path opacity="0.7" d="M217.182 277.27L201.782 278.894C191.59 281.386 186.984 285.894 185.934 294.896C185.444 299.096 182.91 310.296 186.466 324.296C189.686 337.008 198.282 368.116 198.282 368.116C198.282 368.116 178.5 393.932 174.916 438.2C211.12 461.832 266.658 449.134 281.68 434.854C280.42 421.33 271.782 384.216 270.704 372.162C270.704 372.162 271.502 353.332 273 345.17C284.452 332.668 282.996 320.712 277.858 311.066C268.366 293.258 254.058 277.606 249.424 277.62L217.182 277.27Z" fill="white"/>
<path d="M230.525 373.66C230.525 373.94 230.525 374.192 230.525 374.402V374.766C230.534 374.883 230.534 375 230.525 375.116C229.993 380.716 229.363 386.666 228.691 392.728C228.691 392.728 228.691 392.728 228.691 392.812C228.593 393.792 228.481 394.772 228.369 395.766C226.311 414.036 223.861 433.566 221.971 451.346C221.509 455.658 221.089 459.858 220.711 463.946C220.123 470.064 219.493 476.77 218.849 483.546L180.517 505.666L176.317 508.088L165.607 514.262C167.763 493.052 172.789 443.912 175.589 421.736C175.911 419.23 176.331 416.724 176.807 414.232L177.185 412.412L177.353 411.67C177.535 410.83 177.717 410.018 177.913 409.192C178.109 408.366 178.291 407.666 178.473 406.924C178.907 405.23 179.369 403.564 179.873 401.94C180.111 401.156 180.335 400.372 180.587 399.602C180.839 398.832 181.049 398.062 181.301 397.306C181.805 395.794 182.295 394.31 182.813 392.868C182.807 392.84 182.807 392.812 182.813 392.784C183.051 392.098 183.303 391.384 183.555 390.74C183.891 389.788 184.241 388.864 184.591 387.94L185.011 386.834C185.221 386.33 185.403 385.84 185.599 385.35C186.285 383.628 186.999 381.99 187.629 380.464C187.769 380.128 187.923 379.792 188.063 379.47C188.203 379.148 188.427 378.672 188.595 378.28C189.015 377.3 189.435 376.39 189.841 375.48C190.009 375.088 190.191 374.71 190.359 374.346C190.527 373.982 190.765 373.506 190.947 373.114L191.213 372.554L191.493 372.008C191.511 371.937 191.544 371.87 191.591 371.812C191.629 371.71 191.676 371.612 191.731 371.518C191.765 371.455 191.793 371.39 191.815 371.322C191.931 371.124 192.034 370.918 192.123 370.706L193.061 368.886C193.061 368.788 193.159 368.718 193.187 368.634L193.551 367.962L181.903 319.662L176.107 295.666V295.274C176.373 293.146 178.151 283.108 188.399 280.056C194.184 278.563 200.111 277.68 206.081 277.424C208.377 277.284 210.449 277.228 212.143 277.186H214.817H216.427C216.43 277.219 216.43 277.252 216.427 277.284C216.511 277.494 216.749 278.124 217.113 279.104C217.152 279.268 217.208 279.428 217.281 279.58C217.282 279.603 217.282 279.627 217.281 279.65C219.801 286.566 226.871 306.698 230.385 324.184C231.001 327.208 231.505 330.162 231.869 332.962C232.919 341.712 232.149 356.356 230.525 373.66Z" fill="#FAFAFA"/>
<path d="M193.929 344.834C193.929 344.834 195.329 337.932 197.387 323.022C199.781 305.83 198.927 297.332 196.337 291.9L181.735 319.746L193.383 368.046C193.383 368.046 181.413 389.97 176.583 414.246C188.035 381.892 200.565 372.246 200.565 372.246L193.929 344.834Z" fill="#E6E6E6"/>
<path d="M245.084 266.49C249.62 266.49 250.152 267.246 254.058 272.482C256.382 275.604 271.096 299.894 271.096 299.894C271.096 299.894 259.392 284.494 250.558 279.818C248.858 278.821 247.017 278.085 245.098 277.634L245.084 266.49Z" fill="#EBEBEB"/>
<path d="M211.54 318.108C211.54 316.708 211.4 313.684 211.162 309.876C210 291.2 209.44 274.4 215.74 273L216.286 275.576C211.694 276.57 213.206 300.608 213.78 309.652C214.032 313.544 214.228 316.652 214.158 318.164L211.54 318.108Z" fill="#97C7FF"/>
<path d="M190.54 195.832L200.34 203.854C200.873 203.244 201.275 202.532 201.523 201.761C201.771 200.991 201.859 200.177 201.782 199.371C201.705 198.565 201.463 197.783 201.074 197.074C200.684 196.364 200.153 195.741 199.514 195.244C198.225 194.179 196.578 193.646 194.91 193.755C193.242 193.865 191.678 194.608 190.54 195.832Z" fill="#263238"/>
<path d="M216.132 267.68C216.132 261.534 201.81 252.28 194.418 239.358C187.026 226.436 190.722 205.184 200.858 201.922C200.942 201.922 201.222 199.192 201.264 198.996C201.824 196.53 202.769 194.168 204.064 191.996C208.194 184.884 216.944 179.396 225.064 178.248C257.166 173.572 271.922 186.046 277.816 199.766C279.726 204.381 280.578 209.366 280.308 214.354C280.143 218.017 278.783 221.526 276.438 224.345C274.092 227.163 270.888 229.137 267.316 229.964L216.132 267.68Z" fill="#263238"/>
<path d="M260.666 195.174C266.952 197.974 272.93 207.536 272.832 234.444C272.748 257.264 265.748 263.032 262.22 264.726C258.692 266.42 251.79 265.552 245.084 264.53V277.634C245.084 277.634 250.11 282.576 248.346 285.684C246.582 288.792 240.072 291.424 229.95 288.246C218.484 284.648 215.866 277.046 215.866 277.046L215.6 248.29C215.6 248.29 211.75 252.336 204.96 246.4C199.36 241.486 197.344 233.072 201.558 228.452C205.772 223.832 211.177 223.468 216.049 228.634L219.549 226.786C225.792 226.058 234.948 225.008 241.696 221.606C259 212.8 260.792 203.252 260.666 195.174Z" fill="#FFA8A7"/>
<path d="M216.146 224.91L216.23 237.51C217.04 237.532 217.845 237.387 218.596 237.086C219.347 236.785 220.029 236.333 220.6 235.759C221.17 235.185 221.617 234.5 221.913 233.746C222.209 232.993 222.348 232.187 222.321 231.378C222.305 229.718 221.659 228.125 220.512 226.924C219.365 225.722 217.805 225.002 216.146 224.91Z" fill="#263238"/>
<path d="M261.254 226.702C261.26 227.294 261.439 227.871 261.77 228.362C262.101 228.853 262.569 229.236 263.115 229.464C263.662 229.691 264.263 229.753 264.845 229.642C265.426 229.531 265.962 229.252 266.387 228.839C266.811 228.426 267.105 227.898 267.231 227.32C267.358 226.741 267.312 226.138 267.1 225.586C266.887 225.033 266.517 224.555 266.035 224.211C265.553 223.867 264.981 223.672 264.39 223.65C263.982 223.641 263.577 223.713 263.198 223.862C262.819 224.011 262.473 224.234 262.181 224.518C261.889 224.802 261.657 225.142 261.498 225.517C261.338 225.892 261.255 226.295 261.254 226.702Z" fill="black"/>
<path d="M237.105 228.046C237.08 228.48 237.142 228.915 237.285 229.325C237.429 229.735 237.652 230.113 237.942 230.437C238.232 230.761 238.583 231.024 238.975 231.212C239.368 231.4 239.793 231.509 240.227 231.532C240.667 231.536 241.104 231.453 241.513 231.287C241.921 231.121 242.293 230.877 242.606 230.567C242.92 230.257 243.169 229.889 243.34 229.483C243.51 229.077 243.599 228.641 243.601 228.2C243.615 227.774 243.544 227.349 243.394 226.949C243.243 226.55 243.016 226.184 242.724 225.873C242.432 225.561 242.082 225.311 241.693 225.135C241.304 224.959 240.884 224.861 240.458 224.847C240.031 224.833 239.606 224.904 239.207 225.054C238.808 225.205 238.442 225.432 238.13 225.724C237.819 226.016 237.568 226.366 237.392 226.755C237.216 227.144 237.119 227.564 237.105 227.99V228.046Z" fill="black"/>
<path d="M269.262 221.06L261.464 217.966C261.644 217.441 261.931 216.96 262.306 216.551C262.681 216.142 263.137 215.815 263.644 215.59C264.151 215.366 264.699 215.248 265.254 215.245C265.809 215.242 266.358 215.353 266.868 215.572C267.895 216.004 268.717 216.815 269.163 217.837C269.608 218.859 269.644 220.013 269.262 221.06Z" fill="black"/>
<path d="M253.862 224.238L253.47 242.914L263.508 240.688L253.862 224.238Z" fill="#F28F8F"/>
<path d="M242.032 246.722L251.832 249.76C251.69 250.428 251.412 251.06 251.015 251.616C250.618 252.172 250.111 252.64 249.525 252.992C248.94 253.344 248.288 253.572 247.611 253.661C246.934 253.751 246.245 253.7 245.588 253.512C244.244 253.045 243.127 252.082 242.467 250.821C241.806 249.56 241.651 248.094 242.032 246.722Z" fill="#B16668"/>
<path d="M247.45 253.68C247.439 252.317 246.889 251.014 245.922 250.054C244.954 249.095 243.647 248.556 242.284 248.556C242.148 248.549 242.013 248.549 241.878 248.556C241.928 249.65 242.306 250.703 242.962 251.58C243.619 252.456 244.524 253.115 245.56 253.47C246.168 253.671 246.812 253.742 247.45 253.68Z" fill="#F28F8F"/>
<path d="M245.084 264.6C238.014 263.76 223.44 259.7 221.074 253.778C222.022 256.751 223.841 259.37 226.296 261.296C230.692 265.076 245.084 269.01 245.084 269.01V264.6Z" fill="#F28F8F"/>
<path d="M215.797 266.56C213.949 266.182 212.311 266.994 210.799 269.542C209.287 272.09 205.969 277.522 205.969 277.522C205.969 277.522 204.247 295.428 205.969 299.922C207.453 303.786 223.819 318.276 223.819 318.276C223.819 318.276 219.549 334.362 219.395 339.64C219.241 344.918 229.195 364.952 230.399 375.2C230.399 375.2 233.941 343 232.415 331.394C229.783 311.276 220.347 285.292 215.895 277.032L215.797 266.56Z" fill="#EBEBEB"/>
<path d="M225.806 333.2C224.713 330.601 223.426 328.088 221.956 325.682C219.632 321.832 216.762 318.136 214.172 317.184C213.779 317.028 213.362 316.943 212.94 316.932H212.8C212.373 316.956 211.955 317.061 211.568 317.24C209.524 318.15 207.368 320.936 205.618 324.142C203.825 327.362 202.349 330.747 201.208 334.25C200.536 336.42 200.83 341.026 201.628 346.29C203.196 356.51 206.682 369.278 208.628 371.798C210.054 373.559 211.739 375.093 213.626 376.348C212.471 377.112 211.224 377.728 209.916 378.182C209.176 378.452 208.394 378.59 207.606 378.588V380.422H207.83C208.662 380.409 209.488 380.272 210.28 380.016C212.115 379.421 213.848 378.547 215.418 377.426C217.075 378.413 218.874 379.14 220.752 379.582C221.636 379.794 222.55 379.851 223.454 379.75L223.23 377.93C222.446 377.996 221.656 377.935 220.892 377.748C219.545 377.397 218.247 376.88 217.028 376.208C218.804 374.794 220.361 373.124 221.648 371.252C222.74 369.586 224.084 363.846 225.092 357.252C225.708 353.318 226.212 349.09 226.492 345.24C226.8 339.864 226.66 335.258 225.806 333.2ZM220.024 370.244C218.71 372.139 217.098 373.808 215.25 375.186C213.286 373.974 211.536 372.446 210.07 370.664C208.25 368.298 204.89 355.838 203.378 346.01C202.608 341.04 202.328 336.742 202.944 334.81C204.085 331.264 205.596 327.848 207.452 324.618C209.384 321.286 211.442 318.836 212.87 318.78C214.564 318.78 217.308 321.846 219.87 325.78C220.388 326.55 220.878 327.39 221.354 328.23C222.398 330.039 223.333 331.909 224.154 333.83C224.924 335.734 225.008 340.032 224.658 345.03C224.462 347.83 224.154 350.756 223.762 353.668C222.698 361.27 221.2 368.396 220.024 370.202V370.244Z" fill="#455A64"/>
<path d="M225.96 378.672C225.981 379.207 225.844 379.735 225.565 380.192C225.286 380.648 224.878 381.011 224.393 381.235C223.907 381.46 223.366 381.535 222.838 381.451C222.309 381.367 221.818 381.129 221.425 380.766C221.032 380.403 220.756 379.931 220.632 379.411C220.508 378.891 220.54 378.345 220.726 377.844C220.912 377.342 221.242 376.907 221.675 376.594C222.109 376.28 222.625 376.102 223.16 376.082C223.874 376.056 224.57 376.313 225.095 376.799C225.619 377.284 225.93 377.958 225.96 378.672Z" fill="#263238"/>
<path d="M210.266 379.4C210.29 379.935 210.156 380.465 209.878 380.923C209.601 381.381 209.194 381.747 208.709 381.973C208.224 382.199 207.682 382.276 207.153 382.194C206.624 382.112 206.131 381.875 205.737 381.513C205.343 381.15 205.066 380.679 204.94 380.158C204.815 379.638 204.846 379.092 205.032 378.59C205.217 378.087 205.547 377.651 205.98 377.337C206.414 377.023 206.931 376.844 207.466 376.824C207.819 376.809 208.172 376.864 208.503 376.985C208.835 377.107 209.14 377.292 209.4 377.532C209.66 377.771 209.87 378.059 210.019 378.38C210.168 378.7 210.251 379.047 210.266 379.4Z" fill="#263238"/>
<path d="M226.268 345.212L224.714 345.1C224.556 345.086 224.409 345.011 224.305 344.891C224.2 344.771 224.146 344.615 224.154 344.456C224.476 339.318 224.308 335.538 223.678 334.026C220.962 327.39 215.278 319.074 212.884 319.172C210.49 319.27 205.534 328.048 203.378 334.88C202.888 336.448 203.042 340.228 203.784 345.324C203.809 345.48 203.771 345.639 203.679 345.767C203.588 345.895 203.449 345.983 203.294 346.01L201.754 346.248C201.593 346.268 201.43 346.223 201.301 346.123C201.173 346.024 201.089 345.877 201.068 345.716C200.214 340.004 200.116 336.084 200.76 334.054C201.908 330.386 207.326 316.652 212.772 316.428C218.218 316.204 224.784 329.42 226.24 332.99C227.038 334.95 227.276 338.87 226.912 344.624C226.901 344.786 226.828 344.938 226.708 345.048C226.588 345.157 226.431 345.216 226.268 345.212Z" fill="#97C7FF"/>
<path d="M192.696 279.874C182.448 279.706 177.716 283.164 171.22 291.858C166.068 298.76 146.02 336.056 139.37 346.948L103.166 327.6C95.8442 322.546 93.4782 314.566 88.8442 309.904C84.2102 305.242 79.4082 304.304 74.3122 300.454C69.2162 296.604 67.1442 293.608 65.6742 297.206C64.2042 300.804 69.8742 306.628 70.9522 308.07C72.0302 309.512 77.7142 312.718 70.3362 312.83C62.9582 312.942 48.3562 305.298 44.8002 303.94C41.2442 302.582 41.4542 306.824 43.2042 309.54C44.9542 312.256 44.8702 319.928 47.8242 324.366C50.9462 329.07 52.6542 331.114 59.6122 334.166C66.0802 336.966 79.6602 338.086 86.5342 342.384C93.4082 346.682 110.446 361.83 120.806 370.916C133.98 382.466 143.066 384.58 150.402 377.65C157.528 370.188 164.752 361.438 168.28 357C177.786 345.03 192.822 317.8 192.822 317.8C192.822 317.8 199.332 303.8 192.696 279.874Z" fill="#FFA8A7"/>
<path d="M194.11 278.852C179.018 278.852 174.51 284.312 166.782 296.926C159.054 309.54 139.23 345.646 139.23 345.646L110.684 330.694C110.684 330.694 105.546 342.006 100.086 353.668C100.086 353.668 116.242 367.668 123.886 374.29C131.53 380.912 141.666 386.106 151.06 378C161.098 369.348 193.648 324.394 193.648 324.394C201.376 310.366 199.654 289.1 194.11 278.852Z" fill="#F0F0F0"/>
<path d="M139.231 345.646C143.893 351.134 149.535 357.308 149.283 362.166C149.283 362.166 152.475 357.854 141.261 341.964L139.231 345.646Z" fill="#E0E0E0"/>
<path d="M85.2323 211.008L73.5563 217.7L73.5983 204.288L64.8623 199.248L44.4923 211.008V234.528L24.1223 246.288V269.808L32.8583 274.848L44.4923 268.128V281.582L53.2283 286.622L73.5983 274.848V251.328L93.9683 239.568V216.048L85.2323 211.008Z" fill="#97C7FF"/>
<path d="M32.8585 251.328V274.848L53.2285 263.088V286.622L73.5985 274.848V251.328L93.9685 239.568V216.048L73.5285 227.85L73.5985 204.288L53.2285 216.048V239.568L32.8585 251.328Z" fill="#97C7FF"/>
<g opacity="0.2">
<path opacity="0.2" d="M32.8583 274.848L24.1223 269.808V246.288L32.8583 251.328V274.848Z" fill="black"/>
<path opacity="0.2" d="M53.2288 216.048L44.4928 211.008V234.528L53.2288 239.568V216.048Z" fill="black"/>
<path opacity="0.2" d="M53.2288 286.622L44.4928 281.582V268.128L53.2288 263.088V286.622Z" fill="black"/>
</g>
<g opacity="0.5">
<path opacity="0.5" d="M53.2283 239.568L44.4923 234.528L24.1223 246.288L32.8583 251.328L53.2283 239.568Z" fill="white"/>
<path opacity="0.5" d="M73.5988 204.288L64.8628 199.248L44.4928 211.008L53.2288 216.048L73.5988 204.288Z" fill="white"/>
<path opacity="0.5" d="M93.9677 216.048L85.2317 211.008L73.5557 217.7L73.5277 227.85L93.9677 216.048Z" fill="white"/>
</g>
<path d="M420.281 163.8C419.911 163.48 419.513 163.194 419.091 162.946C417.607 162.064 410.887 158.2 410.537 157.99C406.981 155.722 401.353 156.226 396.341 158.76C389.159 162.386 383.181 170.044 378.617 182.798C378.617 182.798 373.997 179.48 372.499 178.598C368.789 176.568 364.449 177.548 359.563 180.726C354.061 184.31 350.309 188.958 346.879 195.986V196.112C343.906 202.08 342.281 208.627 342.119 215.292C342.119 230.034 348.153 237.062 356.007 242.34C358.247 243.852 364.169 247.03 364.757 247.422C369.496 250.552 374.739 252.844 380.255 254.198L387.997 256.004L395.739 245.266C401.375 237.348 406.55 229.112 411.237 220.598C419.091 206.248 425.237 192.192 425.125 177.506C425.013 171.22 423.207 166.6 420.281 163.8Z" fill="#97C7FF"/>
<path opacity="0.3" d="M420.281 163.8C419.911 163.48 419.513 163.194 419.091 162.946C417.607 162.064 410.887 158.2 410.537 157.99C406.981 155.722 401.353 156.226 396.341 158.76C389.159 162.386 383.181 170.044 378.617 182.798C378.617 182.798 373.997 179.48 372.499 178.598C368.789 176.568 364.449 177.548 359.563 180.726C354.061 184.31 350.309 188.958 346.879 195.986V196.112C343.906 202.08 342.281 208.627 342.119 215.292C342.119 230.034 348.153 237.062 356.007 242.34C358.247 243.852 364.169 247.03 364.757 247.422C369.496 250.552 374.739 252.844 380.255 254.198L387.997 256.004L395.739 245.266C401.375 237.348 406.55 229.112 411.237 220.598C419.091 206.248 425.237 192.192 425.125 177.506C425.013 171.22 423.207 166.6 420.281 163.8Z" fill="black"/>
<path d="M420.28 163.8C419.911 163.48 419.512 163.194 419.09 162.946C417.606 162.064 410.886 158.2 410.536 157.99C406.98 155.722 401.352 156.226 396.34 158.76C389.158 162.386 383.18 170.044 378.616 182.798C378.616 182.798 373.996 179.48 372.498 178.598C368.788 176.568 364.448 177.548 359.562 180.726C354.06 184.31 350.308 188.958 346.878 195.986V196.112C346.724 196.42 346.598 196.728 346.458 197.036L405.258 230.944C407.344 227.556 409.374 224.126 411.306 220.598C419.16 206.248 425.306 192.192 425.194 177.506C425.012 171.22 423.206 166.6 420.28 163.8Z" fill="#97C7FF"/>
<path opacity="0.15" d="M420.28 163.8C419.911 163.48 419.512 163.194 419.09 162.946C417.606 162.064 410.886 158.2 410.536 157.99C406.98 155.722 401.352 156.226 396.34 158.76C389.158 162.386 383.18 170.044 378.616 182.798C378.616 182.798 373.996 179.48 372.498 178.598C368.788 176.568 364.448 177.548 359.562 180.726C354.06 184.31 350.308 188.958 346.878 195.986V196.112C346.724 196.42 346.598 196.728 346.458 197.036L405.258 230.944C407.344 227.556 409.374 224.126 411.306 220.598C419.16 206.248 425.306 192.192 425.194 177.506C425.012 171.22 423.206 166.6 420.28 163.8Z" fill="black"/>
<path d="M378.574 182.742L386.442 193.004L399.126 177.996L384.79 169.722C382.237 173.816 380.152 178.183 378.574 182.742Z" fill="#97C7FF"/>
<path opacity="0.3" d="M378.574 182.742L386.442 193.004L399.126 177.996L384.79 169.722C382.237 173.816 380.152 178.183 378.574 182.742Z" fill="black"/>
<path d="M420.281 163.8C416.851 160.734 410.607 161 405.091 163.8C397.573 167.608 391.357 175.826 386.709 189.742C382.061 181.202 375.845 180.936 368.327 185.822C362.811 189.406 359.059 194.054 355.643 201.082L355.573 201.208C352.611 207.184 350.992 213.734 350.827 220.402C350.827 235.144 356.875 242.172 364.715 247.45C369.455 250.579 374.697 252.871 380.213 254.226L387.955 256.032L395.697 245.294C401.334 237.376 406.508 229.14 411.195 220.626C419.049 206.276 425.195 192.22 425.083 177.534C425.013 171.22 423.207 166.6 420.281 163.8Z" fill="#97C7FF"/>
<g opacity="0.07">
<path opacity="0.07" d="M413.673 162.4C415.831 162.301 417.953 162.982 419.651 164.318C419.68 164.378 419.723 164.431 419.777 164.472C422.661 167.104 424.271 171.78 424.285 177.604C424.285 192.934 417.285 207.816 410.495 220.332C405.843 228.818 400.701 237.027 395.095 244.916L387.661 255.262L380.423 253.568C374.989 252.233 369.823 249.979 365.149 246.904C358.149 242.144 351.541 235.704 351.597 220.472C351.745 213.922 353.317 207.482 356.203 201.6V201.474C359.647 194.404 363.357 189.938 368.621 186.522C371.066 184.708 373.983 183.639 377.021 183.442C380.577 183.442 383.503 185.64 385.967 190.162C386.028 190.283 386.122 190.384 386.239 190.454C386.355 190.523 386.489 190.558 386.625 190.554H386.695C386.839 190.541 386.977 190.486 387.091 190.397C387.205 190.307 387.291 190.187 387.339 190.05C391.777 176.764 397.671 168.42 405.343 164.542C407.904 163.2 410.74 162.467 413.631 162.4H413.673ZM413.631 161.658C410.624 161.72 407.672 162.477 405.007 163.87C397.489 167.678 391.273 175.896 386.625 189.812C383.937 184.856 380.717 182.686 377.021 182.686C373.849 182.895 370.803 184.007 368.243 185.892C362.727 189.476 358.975 194.124 355.559 201.152L355.489 201.278C352.527 207.254 350.907 213.805 350.743 220.472C350.743 235.214 356.791 242.242 364.631 247.52C369.371 250.65 374.613 252.942 380.129 254.296L387.871 256.102L395.613 245.364C401.249 237.446 406.424 229.21 411.111 220.696C418.965 206.346 425.111 192.29 424.999 177.604C424.999 171.29 423.165 166.6 420.239 163.912C418.391 162.407 416.054 161.634 413.673 161.742L413.631 161.658Z" fill="black"/>
</g>
<path d="M419.426 203.49L404.362 212.198L398.762 191.828C398.683 191.52 398.501 191.248 398.247 191.057C397.992 190.866 397.68 190.768 397.362 190.778C397.035 190.771 396.715 190.88 396.46 191.084C396.204 191.289 396.028 191.577 395.962 191.898L387.24 231.742L379.904 211.666C379.889 211.295 379.728 210.944 379.455 210.692C379.182 210.44 378.82 210.307 378.448 210.322C378.077 210.337 377.727 210.498 377.475 210.772C377.223 211.045 377.089 211.407 377.104 211.778L372.148 229.376L355.572 238.952C356.118 239.745 356.707 240.506 357.336 241.234L374.136 231.56C374.461 231.371 374.702 231.066 374.808 230.706L378.714 216.818L386.232 237.342C386.332 237.629 386.523 237.876 386.775 238.045C387.028 238.214 387.329 238.297 387.632 238.28C387.943 238.264 388.239 238.146 388.475 237.943C388.711 237.74 388.872 237.465 388.934 237.16L397.474 198.212L401.982 214.746C402.036 214.959 402.139 215.156 402.282 215.321C402.426 215.487 402.607 215.617 402.81 215.7C403.013 215.783 403.232 215.817 403.451 215.8C403.669 215.782 403.881 215.714 404.068 215.6L417.452 207.886C418.222 206.416 418.838 204.96 419.426 203.49Z" fill="white"/>
<path d="M482.651 577.906C482.077 579.804 482.029 581.821 482.511 583.744C483.071 584.92 486.571 588.784 493.711 590.184C500.851 591.584 510.665 590.184 514.893 589.932C519.121 589.68 532.393 591.332 536.607 591.864C543.243 592.76 548.339 591.304 550.817 588.91C551.218 588.429 551.514 587.868 551.685 587.265C551.856 586.663 551.899 586.03 551.811 585.41C551.796 583.813 551.561 582.225 551.111 580.692L482.651 577.906Z" fill="#263238"/>
<path d="M550.018 573.748C550.144 574.294 550.27 574.854 550.382 575.414C551.028 578.231 551.231 581.131 550.984 584.01C550.13 586.11 547.792 587.272 545.902 587.86C540.904 589.456 537.11 589.26 531.58 588.154C526.019 587.344 520.399 586.997 514.78 587.118C510.426 587.412 504.434 588.252 500.08 587.846C496.378 587.692 492.724 586.945 489.258 585.634C486.36 584.402 483.392 582.834 482.678 579.81C481.824 573.51 484.47 570.738 487.452 568.974C490.434 567.21 494.676 567.35 499.212 567.056C503.314 566.776 506.31 566.776 509.964 566.496C513.123 566.343 516.263 565.907 519.344 565.194C522.144 564.326 524.944 560.812 526.092 560.686C526.092 560.686 544.362 560.546 546.098 560.686C548.114 560.854 548.73 567.098 548.982 568.456C549.178 569.52 549.22 570.668 549.5 571.69C549.682 572.376 549.85 573.062 550.018 573.748Z" fill="#37474F"/>
<path d="M493.725 587.006C493.151 582.47 492.325 572.642 500.725 566.958H501.775C498.002 565.866 493.998 565.866 490.225 566.958C483.547 568.736 480.579 574.14 482.245 579.852C482.273 579.796 483.757 585.326 493.725 587.006Z" fill="#FAFAFA"/>
<path d="M518.099 565.516C515.397 567.91 514.459 573.356 514.459 573.356C514.109 575.4 510.413 575.708 510.763 573.734C511.327 571.02 512.416 568.442 513.969 566.146C515.235 565.478 516.69 565.256 518.099 565.516Z" fill="#FAFAFA"/>
<path d="M510.525 566.454C508.487 568.449 507.155 571.054 506.731 573.874C506.353 575.834 503.273 575.806 503.497 573.874C503.497 573.874 503.847 569.044 506.731 566.79C507.289 566.432 507.926 566.215 508.587 566.157C509.247 566.098 509.912 566.2 510.525 566.454Z" fill="#FAFAFA"/>
<path d="M546.658 547.4C546.658 547.4 546.168 559.146 545.524 562.996C545.132 565.292 542.122 567.7 534.632 567.448C529.368 567.266 525.224 567.7 525.434 563.584L525.896 551.586L546.658 547.4Z" fill="#FFA8A7"/>
<path d="M558.405 519.652C558.139 522.858 557.705 525.756 559.021 529.284C560.897 534.352 564.873 536.676 567.211 538.664C569.67 541.101 571.94 543.722 574.001 546.504C576.297 549.304 576.899 550.97 580.343 554.022C582.059 555.343 584.089 556.197 586.234 556.498C588.378 556.8 590.565 556.54 592.579 555.744C595.561 554.47 596.597 553.462 596.415 548.884C596.233 544.306 581.645 542.752 581.645 542.752L558.405 519.652Z" fill="#263238"/>
<path d="M594.525 535.248C595.771 535.696 596.079 537.95 596.275 542.43C596.415 545.818 597.913 550.83 592.999 552.916C589.037 554.638 582.709 553.49 580.035 550.298C576.703 546.308 574.435 542.794 569.675 537.936C565.475 533.736 561.275 532.336 559.413 523.866C558.223 518.434 559.161 516.194 562.997 514.64C568.275 512.498 576.549 519.484 580.693 520.59C584.249 521.528 593.279 534.8 594.525 535.248Z" fill="#37474F"/>
<path d="M580.692 520.59L579.992 520.352C577.632 520.44 575.336 521.144 573.332 522.394C571.328 523.644 569.686 525.397 568.568 527.478C567.868 528.948 569.968 530.096 571.368 528.948C574.308 523.348 580.356 522.144 582.778 521.878C582.182 521.306 581.471 520.867 580.692 520.59Z" fill="#FAFAFA"/>
<path d="M584.094 523.138C581.878 523.346 579.749 524.1 577.896 525.334C576.044 526.568 574.527 528.243 573.482 530.208C572.782 531.608 574.952 532.826 576.282 531.608C577.281 529.856 578.651 528.343 580.295 527.176C581.94 526.008 583.819 525.213 585.802 524.846C585.2 524.286 584.64 523.684 584.094 523.138Z" fill="#FAFAFA"/>
<path d="M595.239 527.156L594.525 536.606C594.525 536.606 588.519 540.988 579.909 536.97C579.657 536.452 578.929 527.996 578.929 527.996L595.239 527.156Z" fill="#FFA8A7"/>
<path d="M561.834 530.096C561.834 530.096 562.24 520.058 576.506 518.672L577.332 519.106C575.709 516.589 573.218 514.756 570.332 513.954C565.6 512.736 561.848 513.954 559.356 516.95C556.864 519.946 559.37 528.15 561.834 530.096Z" fill="#FAFAFA"/>
<path d="M599.397 464.212C597.353 447.678 596.597 438.466 596.597 438.466C596.597 438.466 596.191 415.184 597.605 393.666C598.221 384.23 598.543 373.786 598.739 364.266C599 353.782 598.165 343.3 596.247 332.99C596.247 332.99 523.041 318.43 522.131 345.282C521.025 377.482 521.165 432.516 519.919 453.53C519.233 465.332 520.423 475.118 521.165 498.05C521.767 517.062 521.585 563.85 521.585 563.85C529.649 574.924 548.689 566.482 548.689 566.482C548.689 566.482 554.569 500.78 555.437 487.2C556.361 472.598 554.821 465.206 554.821 465.206L562.367 397.18C562.367 397.18 562.941 419.006 563.585 430.78C564.229 442.554 565.951 449.792 569.017 471.758C571.677 490.826 577.333 539.49 577.333 539.49C587.133 545.286 596.597 539.49 596.597 539.49C596.597 539.49 601.441 480.746 599.397 464.212Z" fill="#455A64"/>
<path d="M589.401 370.258C589.401 370.258 580.231 381.962 568.401 386.988C568.401 386.988 563.277 428.134 563.319 427.322L561.989 385.91C561.989 385.91 579.601 378.126 589.401 370.258Z" fill="#37474F"/>
<path d="M589.148 238C597.03 236.236 605.948 241.864 611.884 254.422C617.624 266.434 633.304 296.772 633.682 305.27C634.088 314.076 594.916 340.788 595.882 340.27C596.19 340.116 589.12 320.068 589.12 320.068L608.146 304.318L597.8 283.01L589.148 238Z" fill="#FFA8A7"/>
<path d="M585.005 236.11C591.641 235.298 603.667 237.804 608.259 245.784C614.923 257.334 620.999 270.69 628.741 287.952C628.741 287.952 623.001 300.384 606.481 301.56L596.583 284.2L585.005 236.11Z" fill="#37474F"/>
<path d="M551.6 225.708L552.748 250.208L577.024 248.906L576.282 220.444L551.6 225.708Z" fill="#FFA8A7"/>
<path d="M600.866 248.444C598.822 241.766 591.766 236.264 582.848 235.998C580.86 235.998 576.688 235.998 576.688 235.998C575.68 240.128 563.038 241.598 552.23 239.12C548.968 239.988 535.43 243.32 532.63 244.16C524.86 246.736 522.466 254.66 521.262 280C521.262 280 521.5 329.952 521.262 353.794C534.926 361.004 556.038 360.108 571.06 358.582C594.664 356.202 598.178 347.648 598.178 347.648C597.184 333.746 597.786 328.51 598.178 314.79C598.472 304.472 601.44 293.566 602.378 281.876C603.764 264.502 602.252 253.036 600.866 248.444Z" fill="#97C7FF"/>
<path d="M547.806 230.356C542.206 229.964 535.206 234.43 533.4 243.992L537.964 242.774L547.806 230.356Z" fill="#97C7FF"/>
<path opacity="0.3" d="M547.806 230.356C542.206 229.964 535.206 234.43 533.4 243.992L537.964 242.774L547.806 230.356Z" fill="black"/>
<path d="M551.909 232.4C556.109 233.8 568.358 233.604 572.46 232.4C576.562 231.196 576.52 229.376 576.52 229.376V227.318C578.886 227.311 581.197 228.03 583.142 229.376C585.76 231.504 590.268 239.176 590.142 242.858C590.016 246.54 582.149 256.256 566.973 256.018C551.797 255.78 543.271 250.166 540.653 246.47L538.021 242.76C538.021 242.76 541.619 235.368 545.161 232.26C546.977 230.5 549.306 229.362 551.811 229.012L551.909 232.4Z" fill="#97C7FF"/>
<path opacity="0.2" d="M551.909 232.4C556.109 233.8 568.358 233.604 572.46 232.4C576.562 231.196 576.52 229.376 576.52 229.376V227.318C578.886 227.311 581.197 228.03 583.142 229.376C585.76 231.504 590.268 239.176 590.142 242.858C590.016 246.54 582.149 256.256 566.973 256.018C551.797 255.78 543.271 250.166 540.653 246.47L538.021 242.76C538.021 242.76 541.619 235.368 545.161 232.26C546.977 230.5 549.306 229.362 551.811 229.012L551.909 232.4Z" fill="black"/>
<path d="M535.262 195.664C535.262 195.664 529.48 204.442 530.138 205.296C530.796 206.15 535.052 206.948 535.052 206.948L535.262 195.664Z" fill="#F28F8F"/>
<path d="M551.334 171.36C539.63 173.838 534.954 177.268 534.226 197.274C533.526 216.734 535.976 223.146 538.524 225.764C540.246 227.528 549.836 227.85 554.666 226.506C560.714 224.84 574.392 219.996 580.79 210.224C588.322 198.716 590.296 183.12 582.19 176.722C570.892 167.72 556.108 170.352 551.334 171.36Z" fill="#FFA8A7"/>
<path d="M538.524 225.75C539.924 227.15 546.63 227.682 551.67 227.066L551.6 224.168C547.425 225.708 542.947 226.25 538.524 225.75Z" fill="#F28F8F"/>
<path d="M532.673 178.878C535.589 180.968 539.206 181.838 542.753 181.3C542.683 182.869 543.104 184.42 543.957 185.738C545.145 187.535 546.946 188.839 549.025 189.406C547.743 191.918 547.063 194.693 547.037 197.512C546.958 198.397 547.148 199.285 547.583 200.06C547.717 200.342 547.929 200.579 548.192 200.746C548.456 200.912 548.762 201.001 549.074 201.001C549.386 201.001 549.691 200.912 549.955 200.746C550.219 200.579 550.431 200.342 550.565 200.06C551.223 198.571 552.05 197.161 553.029 195.86C554.298 194.341 556.082 193.344 558.041 193.06C565.391 192.262 566.315 201.88 563.375 205.87C558.559 212.394 554.471 207.97 554.471 207.97C554.283 211.028 554.748 214.091 555.834 216.956C556.92 219.821 558.603 222.423 560.771 224.588C565.996 226.128 571.533 226.268 576.829 224.994C583.353 216.02 587.455 211.652 590.941 203.91C598.305 187.516 594.749 177.226 589.051 172.886C587.931 165.34 581.981 161.952 575.191 160.398C565.055 158.06 555.591 164.08 545.539 161.798C543.889 161.453 542.258 161.023 540.653 160.51C540.034 160.22 539.329 160.175 538.679 160.384C538.319 160.623 538.036 160.963 537.867 161.361C537.698 161.759 537.649 162.198 537.727 162.624C537.853 164.556 539.813 166.698 540.807 167.734C538.612 167.935 536.399 167.807 534.241 167.356C533.491 167.216 532.722 167.216 531.973 167.356C531.151 167.691 530.456 168.278 529.988 169.033C529.52 169.787 529.303 170.671 529.369 171.556C529.377 172.94 529.676 174.306 530.245 175.567C530.814 176.828 531.641 177.956 532.673 178.878Z" fill="#263238"/>
<path d="M589.232 175.322L596.232 171.122C595.675 170.194 594.772 169.525 593.722 169.262C592.672 169 591.56 169.165 590.632 169.722C589.704 170.279 589.035 171.182 588.772 172.232C588.51 173.282 588.675 174.394 589.232 175.322Z" fill="#263238"/>
<path d="M498.009 285.6C496.422 279.365 494.891 273.121 493.417 266.868C492.017 261.114 489.861 254.45 491.835 248.57C492.956 246.002 494.365 243.569 496.035 241.318C497.479 238.945 498.697 236.442 499.675 233.842C500.165 232.582 500.613 231.294 501.075 230.02C501.537 228.746 502.195 228.018 501.887 226.8C500.865 222.81 495.713 228.046 494.663 229.684C494.197 230.544 493.653 231.359 493.039 232.12C492.367 232.834 490.729 233.73 489.945 232.68C489.683 232.259 489.538 231.776 489.525 231.28C488.993 225.134 491.205 219.632 493.039 213.892C493.328 213.138 493.503 212.346 493.557 211.54C493.59 211.138 493.536 210.733 493.398 210.354C493.26 209.974 493.042 209.629 492.759 209.342C492.302 208.992 491.761 208.769 491.191 208.695C490.621 208.621 490.041 208.7 489.511 208.922C488.475 209.272 487.579 209.93 486.543 210.252C485.507 210.574 484.737 210.574 483.827 210.812C481.668 211.293 479.589 212.081 477.653 213.15C474.293 215.124 472.809 218.008 471.927 221.676C470.867 226.181 470.508 230.823 470.863 235.438C471.101 238.504 471.647 241.528 472.025 244.552L473.285 254.674C474.139 261.422 474.391 295.134 475.553 301.84C476.715 308.546 478.955 313.04 484.261 315.266C491.961 318.402 504.407 304.234 511.477 296.898L498.009 285.6Z" fill="#FFA8A7"/>
<path d="M495.194 281.778C490.238 285.488 484.064 291.662 482.818 297.85C482.818 297.85 481.586 286.72 495.194 276.85V281.778Z" fill="#F28F8F"/>
<path d="M532.239 244.314C527.479 244.762 519.639 244.93 511.659 253.512C502.405 263.536 488.139 283.304 488.139 283.304C488.139 283.304 490.001 299.04 505.149 304.682C505.149 304.682 527.171 283.682 531.903 274.638C536.635 265.594 537.699 250.6 532.239 244.314Z" fill="#37474F"/>
<path d="M525.896 211.05L519.876 207.816L523.334 204.862L510.832 199.01L516.292 195.846L502.824 188.678L510.832 195.748L504.322 199.01L519.008 205.366L515.382 208.992L525.896 211.05Z" fill="#97C7FF"/>
<path d="M528.962 203.112L525.042 199.36L527.184 197.778L523.74 193.69L527.044 192.57L525.896 187.39L528.22 192.976L525.896 193.984L529.62 198.072L527.1 199.864L528.962 203.112Z" fill="#97C7FF"/>
<path d="M526.68 216.972L519.288 222.74L516.558 218.722L510.09 222.236L507.444 217.266L497.434 219.828L509.012 214.284L512.33 218.862L517.706 215.978L519.946 219.828L526.68 216.972Z" fill="#97C7FF"/>
<path d="M475.287 320.194C475.512 320.007 475.802 319.917 476.093 319.943C476.384 319.97 476.653 320.11 476.841 320.334C478.273 321.942 480.132 323.109 482.202 323.699C484.272 324.289 486.467 324.277 488.531 323.666C488.672 323.616 488.821 323.596 488.97 323.605C489.119 323.615 489.265 323.655 489.398 323.722C489.531 323.789 489.649 323.883 489.745 323.997C489.842 324.111 489.914 324.244 489.957 324.387C490.001 324.53 490.015 324.68 489.999 324.828C489.983 324.977 489.937 325.12 489.864 325.25C489.79 325.381 489.692 325.495 489.573 325.586C489.455 325.677 489.32 325.743 489.175 325.78C486.7 326.513 484.067 326.522 481.586 325.808C479.106 325.094 476.881 323.685 475.175 321.748C475.079 321.639 475.006 321.512 474.96 321.375C474.913 321.238 474.895 321.092 474.905 320.948C474.916 320.803 474.955 320.662 475.02 320.532C475.086 320.403 475.177 320.288 475.287 320.194Z" fill="#E0E0E0"/>
<path d="M476.406 327.6C476.602 327.436 476.85 327.346 477.106 327.346C477.362 327.346 477.609 327.436 477.806 327.6C478.945 328.424 480.251 328.989 481.632 329.255C483.013 329.521 484.436 329.482 485.8 329.14C486.089 329.087 486.388 329.149 486.632 329.314C486.875 329.479 487.044 329.733 487.102 330.022C487.13 330.164 487.13 330.31 487.102 330.451C487.074 330.593 487.017 330.728 486.937 330.847C486.856 330.967 486.752 331.07 486.632 331.149C486.511 331.229 486.376 331.283 486.234 331.31C484.547 331.702 482.795 331.718 481.102 331.357C479.408 330.997 477.815 330.269 476.434 329.224C476.323 329.13 476.233 329.015 476.167 328.886C476.101 328.756 476.062 328.615 476.052 328.471C476.041 328.326 476.06 328.181 476.106 328.043C476.153 327.906 476.226 327.779 476.322 327.67C476.347 327.643 476.375 327.62 476.406 327.6Z" fill="#E0E0E0"/>
<path d="M613.872 242.746C613.743 242.813 613.601 242.854 613.456 242.865C613.311 242.877 613.165 242.859 613.027 242.814C612.888 242.768 612.761 242.695 612.651 242.599C612.541 242.504 612.452 242.387 612.388 242.256C611.366 240.361 609.828 238.796 607.952 237.74C606.076 236.684 603.94 236.182 601.79 236.292C601.645 236.3 601.499 236.28 601.362 236.232C601.225 236.184 601.098 236.109 600.989 236.013C600.77 235.817 600.638 235.542 600.621 235.249C600.604 234.956 600.705 234.668 600.9 234.448C601.096 234.229 601.371 234.097 601.664 234.08C604.244 233.945 606.81 234.549 609.059 235.821C611.308 237.093 613.148 238.981 614.362 241.262C614.49 241.524 614.51 241.826 614.418 242.104C614.327 242.381 614.131 242.611 613.872 242.746Z" fill="#E0E0E0"/>
<path d="M614.488 235.326C614.253 235.449 613.982 235.483 613.725 235.421C613.467 235.36 613.241 235.206 613.088 234.99C612.184 233.934 611.064 233.085 609.803 232.501C608.542 231.916 607.17 231.61 605.78 231.602C605.635 231.597 605.492 231.562 605.36 231.502C605.228 231.441 605.109 231.355 605.01 231.248C604.911 231.142 604.834 231.017 604.784 230.881C604.734 230.744 604.71 230.599 604.716 230.454C604.721 230.309 604.755 230.166 604.816 230.034C604.877 229.902 604.963 229.783 605.07 229.684C605.176 229.586 605.301 229.509 605.437 229.458C605.574 229.408 605.719 229.385 605.864 229.39C607.59 229.407 609.292 229.802 610.85 230.547C612.407 231.292 613.783 232.369 614.88 233.702C615.038 233.939 615.097 234.228 615.044 234.508C614.992 234.788 614.833 235.036 614.6 235.2L614.488 235.326Z" fill="#E0E0E0"/>
<path d="M634.061 316.022C633.921 315.766 633.888 315.464 633.969 315.184C634.05 314.903 634.239 314.666 634.495 314.524C636.339 313.415 637.83 311.805 638.794 309.882C639.758 307.959 640.156 305.801 639.941 303.66C639.923 303.515 639.935 303.369 639.975 303.229C640.015 303.089 640.083 302.958 640.174 302.845C640.266 302.731 640.379 302.637 640.507 302.568C640.635 302.499 640.776 302.456 640.921 302.442C641.212 302.411 641.504 302.496 641.733 302.68C641.961 302.864 642.107 303.131 642.139 303.422C642.389 305.982 641.907 308.561 640.75 310.858C639.592 313.155 637.807 315.077 635.601 316.4C635.476 316.478 635.336 316.531 635.19 316.554C635.044 316.578 634.895 316.572 634.751 316.536C634.608 316.501 634.473 316.437 634.354 316.349C634.235 316.261 634.136 316.15 634.061 316.022Z" fill="#E0E0E0"/>
<path d="M641.494 316.288C641.369 316.06 641.327 315.796 641.375 315.54C641.424 315.285 641.56 315.054 641.76 314.888C642.776 313.938 643.573 312.779 644.098 311.49C644.622 310.202 644.861 308.815 644.798 307.426C644.798 307.133 644.914 306.851 645.122 306.644C645.329 306.437 645.61 306.32 645.904 306.32C646.197 306.32 646.478 306.437 646.686 306.644C646.893 306.851 647.01 307.133 647.01 307.426C647.07 309.15 646.756 310.866 646.089 312.456C645.421 314.046 644.418 315.473 643.146 316.638C643.032 316.728 642.901 316.795 642.761 316.835C642.622 316.874 642.475 316.886 642.331 316.869C642.187 316.852 642.047 316.807 641.92 316.736C641.793 316.665 641.682 316.57 641.592 316.456L641.494 316.288Z" fill="#E0E0E0"/>
<path d="M512.708 449.4C512.97 449.532 513.169 449.762 513.263 450.039C513.357 450.317 513.339 450.62 513.212 450.884C512.326 452.844 512.015 455.016 512.318 457.145C512.62 459.275 513.523 461.275 514.92 462.91C515.11 463.136 515.203 463.426 515.179 463.72C515.155 464.013 515.017 464.286 514.794 464.478C514.573 464.668 514.285 464.763 513.994 464.742C513.703 464.721 513.432 464.586 513.24 464.366C511.562 462.398 510.48 459.991 510.123 457.429C509.766 454.867 510.148 452.256 511.224 449.904C511.357 449.643 511.586 449.443 511.864 449.349C512.141 449.255 512.444 449.273 512.708 449.4Z" fill="#E0E0E0"/>
<path d="M506.437 453.39C506.676 453.503 506.867 453.698 506.974 453.939C507.082 454.18 507.1 454.453 507.025 454.706C506.731 456.066 506.735 457.474 507.037 458.832C507.339 460.19 507.932 461.467 508.775 462.574C508.94 462.815 509.004 463.11 508.955 463.398C508.905 463.686 508.745 463.943 508.509 464.114C508.269 464.283 507.972 464.349 507.684 464.3C507.395 464.25 507.138 464.087 506.969 463.848C505.931 462.464 505.208 460.87 504.85 459.177C504.492 457.484 504.508 455.734 504.897 454.048C504.94 453.908 505.01 453.777 505.104 453.664C505.198 453.551 505.314 453.458 505.444 453.39C505.574 453.323 505.717 453.281 505.863 453.269C506.01 453.257 506.157 453.275 506.297 453.32L506.437 453.39Z" fill="#E0E0E0"/>
<path d="M430.431 65.0296C430.362 63.7241 429.985 62.4535 429.33 61.322C428.676 60.1904 427.762 59.23 426.665 58.5196L423.613 56.7416C422.446 56.1576 421.159 55.8536 419.854 55.8536C418.549 55.8536 417.262 56.1576 416.095 56.7416L345.185 97.7196C344.089 98.4317 343.177 99.3925 342.522 100.524C341.868 101.655 341.49 102.925 341.419 104.23V140.896C341.491 142.2 341.869 143.47 342.524 144.601C343.178 145.732 344.09 146.693 345.185 147.406L348.251 149.17C349.415 149.763 350.703 150.073 352.01 150.073C353.316 150.073 354.605 149.763 355.769 149.17L426.665 108.206C427.762 107.495 428.676 106.535 429.33 105.403C429.985 104.272 430.362 103.001 430.431 101.696V65.0296Z" fill="#97C7FF"/>
<path opacity="0.5" d="M430.431 65.0296C430.362 63.7241 429.985 62.4535 429.33 61.322C428.676 60.1904 427.762 59.23 426.665 58.5196L423.613 56.7416C422.446 56.1576 421.159 55.8536 419.854 55.8536C418.549 55.8536 417.262 56.1576 416.095 56.7416L345.185 97.7196C344.089 98.4317 343.177 99.3925 342.522 100.524C341.868 101.655 341.49 102.925 341.419 104.23V140.896C341.491 142.2 341.869 143.47 342.524 144.601C343.178 145.732 344.09 146.693 345.185 147.406L348.251 149.17C349.415 149.763 350.703 150.073 352.01 150.073C353.316 150.073 354.605 149.763 355.769 149.17L426.665 108.206C427.762 107.495 428.676 106.535 429.33 105.403C429.985 104.272 430.362 103.001 430.431 101.696V65.0296Z" fill="white"/>
<path opacity="0.2" d="M341.419 140.896C341.491 142.201 341.869 143.47 342.524 144.601C343.178 145.732 344.09 146.693 345.185 147.406L348.251 149.17C349.31 149.704 350.47 150.007 351.655 150.06C352.84 150.113 354.022 149.915 355.125 149.478C353.347 150.15 352.003 149.156 352.003 147V110.334C352.048 109.023 352.429 107.746 353.109 106.624L342.525 100.52C341.843 101.641 341.462 102.919 341.419 104.23V140.896Z" fill="black"/>
<path opacity="0.3" d="M430.304 63.9659C429.87 62.3699 428.414 61.8519 426.678 62.8599L355.768 103.824C354.652 104.509 353.734 105.474 353.108 106.624L342.538 100.52C343.163 99.3737 344.075 98.4091 345.184 97.7199L416.08 56.7559C417.244 56.1622 418.532 55.8527 419.839 55.8527C421.146 55.8527 422.434 56.1622 423.598 56.7559L426.678 58.5199C427.619 59.1353 428.426 59.9353 429.049 60.8713C429.672 61.8074 430.099 62.8601 430.304 63.9659Z" fill="white"/>
<path d="M352.017 122.192L341.447 116.088L328.707 128.352C328.515 128.545 328.37 128.779 328.282 129.036C328.195 129.293 328.166 129.567 328.2 129.837C328.234 130.107 328.329 130.366 328.477 130.593C328.625 130.821 328.824 131.012 329.057 131.152L339.459 137.2C339.89 137.425 340.374 137.527 340.859 137.494L352.059 135.352V122.192H352.017Z" fill="#97C7FF"/>
<path opacity="0.5" d="M352.017 122.192L341.447 116.088L328.707 128.352C328.515 128.545 328.37 128.779 328.282 129.036C328.195 129.293 328.166 129.567 328.2 129.837C328.234 130.107 328.329 130.366 328.477 130.593C328.625 130.821 328.824 131.012 329.057 131.152L339.459 137.2C339.89 137.425 340.374 137.527 340.859 137.494L352.059 135.352V122.192H352.017Z" fill="white"/>
<path opacity="0.3" d="M339.458 137.2L333.858 133.994L333.2 133.56L330.204 131.824L329.84 131.6L329.042 131.138C328.809 130.998 328.611 130.807 328.462 130.579C328.314 130.352 328.219 130.093 328.185 129.823C328.152 129.553 328.18 129.279 328.267 129.022C328.355 128.765 328.5 128.531 328.692 128.338L341.432 116.074L352.016 122.192L339.276 134.4C339.074 134.58 338.915 134.803 338.812 135.054C338.71 135.304 338.665 135.574 338.683 135.844C338.7 136.114 338.779 136.377 338.914 136.612C339.048 136.847 339.234 137.048 339.458 137.2Z" fill="white"/>
<path d="M372.723 110.922C371.26 111.873 370.042 113.157 369.169 114.667C368.296 116.178 367.791 117.874 367.697 119.616C367.697 122.808 369.951 124.11 372.723 122.514C374.184 121.562 375.399 120.278 376.27 118.767C377.141 117.256 377.643 115.561 377.735 113.82C377.735 110.6 375.495 109.326 372.723 110.922Z" fill="white"/>
<path d="M391.216 100.226C389.755 101.178 388.539 102.462 387.668 103.973C386.797 105.483 386.295 107.179 386.204 108.92C386.204 112.112 388.444 113.414 391.216 111.804C392.675 110.853 393.889 109.572 394.76 108.063C395.631 106.555 396.134 104.863 396.228 103.124C396.2 99.9179 393.988 98.6159 391.216 100.226Z" fill="white"/>
<path d="M409.71 89.516C408.252 90.4706 407.038 91.7549 406.167 93.2652C405.297 94.7754 404.793 96.4693 404.698 98.21C404.698 101.416 406.938 102.704 409.71 101.108C411.175 100.155 412.394 98.8697 413.267 97.3564C414.14 95.8431 414.644 94.1448 414.736 92.4C414.736 89.222 412.482 87.92 409.71 89.516Z" fill="white"/>
<path d="M566.917 136.906L561.835 127.4L565.923 115.598V108.332L553.407 115.556V122.78L558.783 132.104C558.871 132.243 558.998 132.355 559.147 132.426L566.917 136.906Z" fill="#97C7FF"/>
<path opacity="0.2" d="M566.917 136.906L561.835 127.4L565.923 115.598V108.332L553.407 115.556V122.78L558.783 132.104C558.871 132.243 558.998 132.355 559.147 132.426L566.917 136.906Z" fill="black"/>
<path d="M604.926 61.2929C604.857 59.9911 604.481 58.7241 603.829 57.5952C603.176 56.4663 602.267 55.5075 601.174 54.7969L598.122 53.0329C596.96 52.4393 595.675 52.1298 594.37 52.1298C593.066 52.1298 591.78 52.4393 590.618 53.0329L519.876 93.8989C518.788 94.6182 517.883 95.581 517.232 96.711C516.58 97.8409 516.201 99.107 516.124 100.409V136.991C516.193 138.293 516.57 139.56 517.222 140.689C517.874 141.817 518.783 142.776 519.876 143.487L522.928 145.251C524.093 145.833 525.378 146.135 526.68 146.135C527.982 146.135 529.267 145.833 530.432 145.251L561.232 127.331L566.608 136.627C566.685 136.751 566.796 136.851 566.928 136.916C567.059 136.981 567.206 137.007 567.352 136.993C567.497 136.978 567.636 136.923 567.752 136.834C567.868 136.744 567.957 136.624 568.008 136.487L573.692 120.121L601.104 104.371C602.197 103.66 603.107 102.701 603.759 101.573C604.411 100.444 604.787 99.1767 604.856 97.8749L604.926 61.2929Z" fill="#97C7FF"/>
<path d="M537.32 107.492L593.88 74.83C595.56 73.864 596.918 74.55 596.918 76.37C596.842 77.3875 596.528 78.3728 596 79.2459C595.472 80.1191 594.746 80.8557 593.88 81.396L537.32 114.058C535.654 115.024 534.296 114.338 534.296 112.518C534.372 111.502 534.685 110.518 535.21 109.645C535.735 108.772 536.458 108.035 537.32 107.492Z" fill="white"/>
<path d="M537.32 122.038L593.88 89.39C595.56 88.424 596.918 89.11 596.918 90.916C596.844 91.9359 596.531 92.924 596.003 93.7998C595.475 94.6755 594.748 95.4143 593.88 95.956L537.32 128.604C535.654 129.584 534.296 128.884 534.296 127.078C534.37 126.06 534.682 125.073 535.207 124.197C535.733 123.322 536.456 122.582 537.32 122.038Z" fill="white"/>
<path opacity="0.2" d="M516.124 136.99C516.193 138.292 516.57 139.559 517.222 140.688C517.874 141.816 518.783 142.775 519.876 143.486L522.928 145.25C523.985 145.782 525.143 146.084 526.325 146.137C527.507 146.19 528.687 145.993 529.788 145.558C528.024 146.216 526.68 145.222 526.68 143.08V106.498C526.725 105.193 527.101 103.921 527.772 102.802L517.216 96.6979C516.545 97.8225 516.169 99.0988 516.124 100.408V136.99Z" fill="black"/>
<path opacity="0.2" d="M604.799 60.1999C604.365 58.6039 602.909 58.0999 601.173 59.0939L530.431 99.9739C529.318 100.657 528.405 101.624 527.785 102.774L517.229 96.6839C517.857 95.5396 518.768 94.5756 519.875 93.8839L590.603 53.0039C591.77 52.4199 593.057 52.1159 594.362 52.1159C595.667 52.1159 596.954 52.4199 598.121 53.0039L601.173 54.7679C602.116 55.3787 602.924 56.1756 603.547 57.1096C604.171 58.0437 604.597 59.0953 604.799 60.1999Z" fill="white"/>
</svg>
