<svg width="750" height="750" viewBox="0 0 750 750" fill="none" xmlns="http://www.w3.org/2000/svg">
<path d="M94.0797 308.43C94.0797 308.43 73.3347 399.93 133.29 480.135C193.245 560.34 297 592.05 380.505 619.95C464.01 647.85 541.755 616.785 570.555 546.66C599.355 476.535 540 438.255 526.365 346.32C512.73 254.385 522.96 228 461.73 157.665C400.5 87.3301 275.73 88.1701 191.895 159.42C108.06 230.67 94.0797 308.43 94.0797 308.43Z" fill="#97C7FF"/>
<path opacity="0.7" d="M94.0797 308.43C94.0797 308.43 73.3347 399.93 133.29 480.135C193.245 560.34 297 592.05 380.505 619.95C464.01 647.85 541.755 616.785 570.555 546.66C599.355 476.535 540 438.255 526.365 346.32C512.73 254.385 522.96 228 461.73 157.665C400.5 87.3301 275.73 88.1701 191.895 159.42C108.06 230.67 94.0797 308.43 94.0797 308.43Z" fill="white"/>
<path d="M581.265 186.81C581.265 186.81 582.765 179.04 574.02 166.02C565.275 153 559.5 145.41 559.5 145.41C559.5 145.41 550.5 162.24 558.54 175.11C564.482 184.223 571.175 192.822 578.55 200.82L581.265 186.81Z" fill="#97C7FF"/>
<path d="M555.96 232.305C555.96 232.305 557.46 224.535 548.715 211.515C539.97 198.495 534.165 190.905 534.165 190.905C534.165 190.905 525.165 207.735 533.22 220.59C539.159 229.709 545.853 238.314 553.23 246.315L555.96 232.305Z" fill="#97C7FF"/>
<path d="M577.98 199.935C577.98 199.935 580.32 192.435 594.195 185.025C608.07 177.615 616.695 173.73 616.695 173.73C616.695 173.73 616.695 192.78 603.525 200.355C593.978 205.577 584.014 209.997 573.735 213.57L577.98 199.935Z" fill="#97C7FF"/>
<path d="M547.679 253.575C547.679 253.575 550.799 246.285 565.364 240.45C579.929 234.615 588.974 231.585 588.974 231.585C588.974 231.585 586.919 250.53 573.074 256.68C563.038 260.877 552.666 264.224 542.069 266.685L547.679 253.575Z" fill="#97C7FF"/>
<path d="M539.039 316.83C539.039 316.83 540.539 309.045 553.589 300.33C566.639 291.615 574.814 286.71 574.814 286.71C574.814 286.71 576.764 305.67 564.524 314.58C555.593 320.792 546.155 326.241 536.309 330.87L539.039 316.83Z" fill="#97C7FF"/>
<path d="M535.875 332.055C535.875 332.055 538.485 324.555 531.675 310.44C524.865 296.325 520.2 287.94 520.2 287.94C520.2 287.94 508.95 303.315 515.025 317.19C519.609 327.056 525.013 336.519 531.18 345.48L535.875 332.055Z" fill="#97C7FF"/>
<path d="M516.299 375.21C516.299 375.21 517.799 367.44 530.834 358.71C543.869 349.98 552.074 345 552.074 345C552.074 345 554.024 363.945 541.784 372.87C532.849 379.076 523.411 384.525 513.569 389.16L516.299 375.21Z" fill="#97C7FF"/>
<path d="M515.55 417.66C515.55 417.66 515.055 409.755 525.435 397.98C535.815 386.205 542.52 379.5 542.52 379.5C542.52 379.5 549.21 397.335 539.625 409.065C532.555 417.335 524.802 424.997 516.45 431.97L515.55 417.66Z" fill="#97C7FF"/>
<path d="M582.63 185.01C580.499 193.005 577.93 200.877 574.935 208.59C566.28 229.995 552.72 242.235 544.485 261.48C536.25 280.725 543.555 309.03 535.2 334.185C526.845 359.34 514.005 371.685 513.51 389.505C513.015 407.325 519 456.87 519 456.87" stroke="#263238" stroke-width="0.5" stroke-linecap="round" stroke-linejoin="round"/>
<path d="M576.87 205.08L590.37 198.375" stroke="#263238" stroke-width="0.5" stroke-linecap="round" stroke-linejoin="round"/>
<path d="M579.435 194.82L576.24 185.13" stroke="#263238" stroke-width="0.5" stroke-linecap="round" stroke-linejoin="round"/>
<path d="M545.309 260.685C545.309 260.685 556.589 255.24 568.124 249.84" stroke="#263238" stroke-width="0.5" stroke-linecap="round" stroke-linejoin="round"/>
<path d="M553.23 246.315C553.23 246.315 548.175 228.66 540.975 216.21" stroke="#263238" stroke-width="0.5" stroke-linecap="round" stroke-linejoin="round"/>
<path d="M537.27 327.975C544.896 318.734 553.824 310.649 563.775 303.975" stroke="#263238" stroke-width="0.5" stroke-linecap="round" stroke-linejoin="round"/>
<path d="M533.219 338.52C531.604 330.916 529.356 323.46 526.499 316.23C522.419 306.66 521.819 305.4 521.819 305.4" stroke="#263238" stroke-width="0.5" stroke-linecap="round" stroke-linejoin="round"/>
<path d="M513.51 389.505C517.203 383.81 521.33 378.409 525.855 373.35C530.296 368.702 535.112 364.427 540.255 360.57" stroke="#263238" stroke-width="0.5" stroke-linecap="round" stroke-linejoin="round"/>
<path d="M516.449 431.895C517.037 425.882 519.217 420.135 522.764 415.245C528.404 408.12 535.079 398.67 537.764 394.935" stroke="#263238" stroke-width="0.5" stroke-linecap="round" stroke-linejoin="round"/>
<path d="M489.644 276.81C489.644 276.81 489.749 271.755 496.964 264.81C504.179 257.865 508.799 253.965 508.799 253.965C508.799 253.965 512.084 265.635 505.364 272.55C500.441 277.418 495.117 281.863 489.449 285.84L489.644 276.81Z" fill="#97C7FF"/>
<path d="M499.2 308.52C499.2 308.52 499.32 303.48 506.52 296.52C513.72 289.56 518.37 285.675 518.37 285.675C518.37 285.675 521.64 297.345 514.935 304.275C510.005 309.137 504.676 313.578 499.005 317.55L499.2 308.52Z" fill="#97C7FF"/>
<path d="M489.9 285.405C489.9 285.405 489.48 280.38 481.845 273.93C474.21 267.48 469.35 263.85 469.35 263.85C469.35 263.85 466.8 275.715 473.94 282.195C479.165 286.738 484.759 290.838 490.665 294.45L489.9 285.405Z" fill="#97C7FF"/>
<path d="M501.479 322.86C501.479 322.86 500.519 317.91 492.254 312.36C483.989 306.81 478.754 303.645 478.754 303.645C478.754 303.645 477.479 315.645 485.249 321.405C490.922 325.398 496.918 328.91 503.174 331.905L501.479 322.86Z" fill="#97C7FF"/>
<path d="M498.27 363.36C498.27 363.36 498.375 358.32 491.475 351.105C484.575 343.89 480.12 339.765 480.12 339.765C480.12 339.765 476.34 351.285 482.73 358.485C487.447 363.555 492.579 368.222 498.075 372.435L498.27 363.36Z" fill="#97C7FF"/>
<path d="M498.179 373.26C498.179 373.26 497.564 368.265 503.729 360.39C509.894 352.515 513.899 348 513.899 348C513.899 348 518.804 359.085 513.149 366.885C508.962 372.398 504.321 377.551 499.274 382.29L498.179 373.26Z" fill="#97C7FF"/>
<path d="M504.15 415.29C504.15 415.29 505.65 410.475 514.545 405.885C523.44 401.295 528.96 398.82 528.96 398.82C528.96 398.82 528.825 410.94 520.44 415.68C514.337 418.963 507.97 421.727 501.405 423.945L504.15 415.29Z" fill="#97C7FF"/>
<path d="M504.509 402.75C504.509 402.75 504.614 397.71 497.699 390.495C490.784 383.28 486.344 379.155 486.344 379.155C486.344 379.155 482.564 390.675 488.969 397.875C493.686 402.945 498.819 407.612 504.314 411.825L504.509 402.75Z" fill="#97C7FF"/>
<path d="M499.215 429.24C499.215 429.24 500.595 424.395 495.75 415.665C490.905 406.935 487.635 401.82 487.635 401.82C487.635 401.82 481.05 412.005 485.43 420.6C488.702 426.705 492.48 432.526 496.725 438L499.215 429.24Z" fill="#97C7FF"/>
<path d="M489 275.49C489.242 280.75 489.773 285.993 490.59 291.195C493.08 305.67 499.845 315.195 502.365 328.215C504.885 341.235 496.5 357.9 498.285 374.715C500.07 391.53 506.37 400.92 504.285 412.05C502.2 423.18 491.775 453.195 491.775 453.195" stroke="#263238" stroke-width="0.5" stroke-linecap="round" stroke-linejoin="round"/>
<path d="M489.9 288.75L482.415 282.75" stroke="#263238" stroke-width="0.5" stroke-linecap="round" stroke-linejoin="round"/>
<path d="M489.689 282.03L492.989 276.435" stroke="#263238" stroke-width="0.5" stroke-linecap="round" stroke-linejoin="round"/>
<path d="M501.975 327.6C501.975 327.6 495.72 322.695 489.27 317.775" stroke="#263238" stroke-width="0.5" stroke-linecap="round" stroke-linejoin="round"/>
<path d="M499.005 317.595C502.316 311.523 506.236 305.804 510.705 300.525" stroke="#263238" stroke-width="0.5" stroke-linecap="round" stroke-linejoin="round"/>
<path d="M497.865 370.5C494.377 363.72 489.92 357.485 484.635 351.99" stroke="#263238" stroke-width="0.5" stroke-linecap="round" stroke-linejoin="round"/>
<path d="M498.96 377.64C500.987 373.134 503.386 368.804 506.13 364.695C509.97 359.295 510.51 358.59 510.51 358.59" stroke="#263238" stroke-width="0.5" stroke-linecap="round" stroke-linejoin="round"/>
<path d="M502.275 420.375C505.642 417.562 509.251 415.052 513.06 412.875C515.435 411.756 517.713 410.441 519.87 408.945" stroke="#263238" stroke-width="0.5" stroke-linecap="round" stroke-linejoin="round"/>
<path d="M504.3 412.02C502.78 407.975 500.949 404.053 498.825 400.29C496.691 396.802 494.273 393.496 491.595 390.405" stroke="#263238" stroke-width="0.5" stroke-linecap="round" stroke-linejoin="round"/>
<path d="M496.725 438C497.181 434.183 496.607 430.314 495.06 426.795C492.525 421.605 489.66 414.795 488.475 412.14" stroke="#263238" stroke-width="0.5" stroke-linecap="round" stroke-linejoin="round"/>
<path d="M127.23 382.32C127.23 382.32 124.86 375.465 111.96 369.21C99.0604 362.955 90.9604 359.595 90.9604 359.595C90.9604 359.595 91.6205 376.995 103.83 383.49C112.707 387.971 121.945 391.699 131.445 394.635L127.23 382.32Z" fill="#97C7FF"/>
<path d="M128.115 429.87C128.115 429.87 125.745 423.03 112.845 416.76C99.9453 410.49 91.8453 407.145 91.8453 407.145C91.8453 407.145 92.5053 424.545 104.715 431.055C113.594 435.528 122.831 439.25 132.33 442.185L128.115 429.87Z" fill="#97C7FF"/>
<path d="M130.665 394.185C130.665 394.185 129.03 387.12 136.665 374.955C144.3 362.79 149.31 355.68 149.31 355.68C149.31 355.68 157.995 370.77 151.11 382.77C145.971 391.281 140.125 399.344 133.635 406.875L130.665 394.185Z" fill="#97C7FF"/>
<path d="M131.325 450.48C131.325 450.48 130.44 443.28 139.275 431.985C148.11 420.69 153.87 414.15 153.87 414.15C153.87 414.15 160.935 430.065 152.82 441.27C146.812 449.19 140.154 456.596 132.915 463.41L131.325 450.48Z" fill="#97C7FF"/>
<path d="M153.525 504.42C153.525 504.42 151.155 497.58 157.425 484.68C163.695 471.78 167.925 464.175 167.925 464.175C167.925 464.175 178.17 478.26 172.59 490.92C168.38 499.924 163.422 508.559 157.77 516.735L153.525 504.42Z" fill="#97C7FF"/>
<path d="M158.025 517.905C158.025 517.905 156.645 510.795 144.765 502.755C132.885 494.715 125.4 490.275 125.4 490.275C125.4 490.275 123.57 507.585 134.745 515.775C142.891 521.485 151.501 526.503 160.485 530.775L158.025 517.905Z" fill="#97C7FF"/>
<path d="M162.345 561C162.345 561 159.975 554.145 166.245 541.245C172.515 528.345 176.745 520.74 176.745 520.74C176.745 520.74 186.99 534.825 181.41 547.485C177.194 556.493 172.231 565.133 166.575 573.315L162.345 561Z" fill="#97C7FF"/>
<path d="M181.244 594.87C181.244 594.87 177.209 588.87 180.014 574.785C182.819 560.7 185.009 552.285 185.009 552.285C185.009 552.285 198.509 563.325 196.274 576.975C194.482 586.756 191.873 596.37 188.474 605.715L181.244 594.87Z" fill="#97C7FF"/>
<path d="M127.5 380.265C129.488 387.557 131.07 394.953 132.24 402.42C135.24 423.3 130.11 439.2 132.45 458.19C134.79 477.18 153.45 496.185 158.475 519.9C163.5 543.615 158.955 559.29 166.71 573.57C174.465 587.85 201.945 624.3 201.945 624.3" stroke="#263238" stroke-width="0.5" stroke-linecap="round" stroke-linejoin="round"/>
<path d="M132.135 398.76L139.725 387.27" stroke="#263238" stroke-width="0.5" stroke-linecap="round" stroke-linejoin="round"/>
<path d="M129.465 389.475L122.475 383.28" stroke="#263238" stroke-width="0.5" stroke-linecap="round" stroke-linejoin="round"/>
<path d="M132.72 457.185C132.72 457.185 139.125 447.705 145.77 438.15" stroke="#263238" stroke-width="0.5" stroke-linecap="round" stroke-linejoin="round"/>
<path d="M132.375 442.185C132.375 442.185 120.285 430.5 108.885 424.02" stroke="#263238" stroke-width="0.5" stroke-linecap="round" stroke-linejoin="round"/>
<path d="M157.245 514.035C159.028 503.233 162.373 492.749 167.175 482.91" stroke="#263238" stroke-width="0.5" stroke-linecap="round" stroke-linejoin="round"/>
<path d="M158.879 524.22C154.12 518.959 148.933 514.102 143.369 509.7C135.749 504 134.699 503.28 134.699 503.28" stroke="#263238" stroke-width="0.5" stroke-linecap="round" stroke-linejoin="round"/>
<path d="M166.694 573.57C167.008 567.375 167.79 561.212 169.034 555.135C170.417 549.449 172.263 543.885 174.554 538.5" stroke="#263238" stroke-width="0.5" stroke-linecap="round" stroke-linejoin="round"/>
<path d="M188.475 605.715C186.182 600.695 185.266 595.156 185.82 589.665C187.02 581.445 187.95 570.915 188.37 566.73" stroke="#263238" stroke-width="0.5" stroke-linecap="round" stroke-linejoin="round"/>
<path d="M96.1195 495.465C96.1195 495.465 93.8845 491.43 96.4195 482.655C98.9545 473.88 100.8 468.66 100.8 468.66C100.8 468.66 108.75 476.385 106.62 484.92C104.954 491.026 102.782 496.981 100.125 502.725L96.1195 495.465Z" fill="#97C7FF"/>
<path d="M118.229 516.135C118.229 516.135 116.009 512.1 118.529 503.325C121.049 494.55 122.909 489.33 122.909 489.33C122.909 489.33 130.859 497.055 128.729 505.59C127.073 511.696 124.906 517.653 122.249 523.395L118.229 516.135Z" fill="#97C7FF"/>
<path d="M100.275 502.14C100.275 502.14 97.6348 498.36 88.6348 496.77C79.6348 495.18 74.1448 494.535 74.1448 494.535C74.1448 494.535 77.5798 505.035 86.1448 506.925C92.3621 508.124 98.6695 508.796 105 508.935L100.275 502.14Z" fill="#97C7FF"/>
<path d="M126.614 526.5C126.614 526.5 123.614 523.02 114.479 522.39C105.344 521.76 99.8241 521.7 99.8241 521.7C99.8241 521.7 104.324 531.81 113.099 532.755C119.403 533.279 125.74 533.279 132.044 532.755L126.614 526.5Z" fill="#97C7FF"/>
<path d="M142.665 559.905C142.665 559.905 140.43 555.87 131.67 553.335C122.91 550.8 117.48 549.585 117.48 549.585C117.48 549.585 119.79 560.43 128.145 563.175C134.197 565.022 140.394 566.357 146.67 567.165L142.665 559.905Z" fill="#97C7FF"/>
<path d="M147.135 567.765C147.135 567.765 144.36 564.09 145.635 555.06C146.91 546.03 147.99 540.57 147.99 540.57C147.99 540.57 156.99 547.08 156.06 555.855C155.284 562.134 153.979 568.336 152.16 574.395L147.135 567.765Z" fill="#97C7FF"/>
<path d="M171.135 598.23C171.135 598.23 170.145 593.73 175.035 586.035C179.925 578.34 183.18 573.825 183.18 573.825C183.18 573.825 188.64 583.485 184.185 591.075C180.872 596.468 177.108 601.571 172.935 606.33L171.135 598.23Z" fill="#97C7FF"/>
<path d="M165.66 588.165C165.66 588.165 163.44 584.13 154.665 581.61C145.89 579.09 140.49 577.845 140.49 577.845C140.49 577.845 142.785 588.69 151.155 591.45C157.206 593.315 163.403 594.67 169.68 595.5L165.66 588.165Z" fill="#97C7FF"/>
<path d="M173.64 611.535C173.64 611.535 172.515 607.035 164.64 602.4C156.765 597.765 151.875 595.17 151.875 595.17C151.875 595.17 151.35 606.24 158.745 611.025C164.131 614.343 169.785 617.203 175.65 619.575L173.64 611.535Z" fill="#97C7FF"/>
<path d="M95.0396 494.715C97.6473 498.755 100.471 502.65 103.5 506.385C112.11 516.69 121.8 521.055 129.795 530.235C137.79 539.415 138.795 556.395 147.885 568.83C156.975 581.265 166.32 585.825 169.755 595.59C173.19 605.355 178.755 633.84 178.755 633.84" stroke="#263238" stroke-width="0.5" stroke-linecap="round" stroke-linejoin="round"/>
<path d="M101.805 504.795L93.1349 503.475" stroke="#263238" stroke-width="0.5" stroke-linecap="round" stroke-linejoin="round"/>
<path d="M98.5494 499.56L98.5945 493.635" stroke="#263238" stroke-width="0.5" stroke-linecap="round" stroke-linejoin="round"/>
<path d="M129.18 529.95C129.18 529.95 121.98 528.945 114.63 528.015" stroke="#263238" stroke-width="0.5" stroke-linecap="round" stroke-linejoin="round"/>
<path d="M122.25 523.395C122.074 517.083 122.546 510.77 123.66 504.555" stroke="#263238" stroke-width="0.5" stroke-linecap="round" stroke-linejoin="round"/>
<path d="M145.634 565.755C139.761 562 133.375 559.115 126.674 557.19" stroke="#263238" stroke-width="0.5" stroke-linecap="round" stroke-linejoin="round"/>
<path d="M149.76 570.87C149.293 566.386 149.202 561.87 149.49 557.37C150.045 551.37 150.15 550.545 150.15 550.545" stroke="#263238" stroke-width="0.5" stroke-linecap="round" stroke-linejoin="round"/>
<path d="M171.99 603.105C173.336 599.33 175.013 595.68 177 592.2C178.358 590.218 179.556 588.131 180.585 585.96" stroke="#263238" stroke-width="0.5" stroke-linecap="round" stroke-linejoin="round"/>
<path d="M169.755 595.59C166.697 593.095 163.453 590.838 160.05 588.84C156.757 587.064 153.326 585.56 149.79 584.34" stroke="#263238" stroke-width="0.5" stroke-linecap="round" stroke-linejoin="round"/>
<path d="M175.68 619.575C174.283 616.349 172.052 613.553 169.215 611.475C164.835 608.55 159.45 604.5 157.215 602.925" stroke="#263238" stroke-width="0.5" stroke-linecap="round" stroke-linejoin="round"/>
<path d="M525.36 405.9H419.745C416.009 405.9 412.98 408.929 412.98 412.665V640.47C412.98 644.206 416.009 647.235 419.745 647.235H525.36C529.096 647.235 532.125 644.206 532.125 640.47V412.665C532.125 408.929 529.096 405.9 525.36 405.9Z" fill="white" stroke="#263238" stroke-width="1.01" stroke-linecap="round" stroke-linejoin="round"/>
<path d="M522.166 437.565H422.956C419.219 437.565 416.191 440.594 416.191 444.33V634.71C416.191 638.446 419.219 641.475 422.956 641.475H522.166C525.902 641.475 528.931 638.446 528.931 634.71V444.33C528.931 440.594 525.902 437.565 522.166 437.565Z" fill="#97C7FF"/>
<path opacity="0.5" d="M522.166 437.565H422.956C419.219 437.565 416.191 440.594 416.191 444.33V634.71C416.191 638.446 419.219 641.475 422.956 641.475H522.166C525.902 641.475 528.931 638.446 528.931 634.71V444.33C528.931 440.594 525.902 437.565 522.166 437.565Z" fill="white"/>
<path d="M500.91 353.85H444.225V405.9H500.91V353.85Z" fill="#263238" stroke="#263238" stroke-width="1.01" stroke-linecap="round" stroke-linejoin="round"/>
<path d="M448.95 358.995V400.29" stroke="white" stroke-width="1.01" stroke-linecap="round" stroke-linejoin="round"/>
<path d="M457.71 358.995V400.29" stroke="white" stroke-width="1.01" stroke-linecap="round" stroke-linejoin="round"/>
<path d="M470.22 372.135V400.29" stroke="white" stroke-width="1.01" stroke-linecap="round" stroke-linejoin="round"/>
<path d="M470.22 358.995V365.88" stroke="white" stroke-width="1.01" stroke-linecap="round" stroke-linejoin="round"/>
<path d="M525.33 457.11H419.79V573.585H525.33V457.11Z" fill="white"/>
<path d="M471.855 557.445C493.444 557.445 510.945 539.944 510.945 518.355C510.945 496.766 493.444 479.265 471.855 479.265C450.266 479.265 432.765 496.766 432.765 518.355C432.765 539.944 450.266 557.445 471.855 557.445Z" fill="#263238"/>
<path d="M479.011 491.46H464.701V545.25H479.011V491.46Z" fill="#97C7FF"/>
<path d="M498.75 525.51V511.2H444.96V525.51H498.75Z" fill="#97C7FF"/>
<path d="M636.87 536.85H470.715C466.78 536.85 463.59 540.04 463.59 543.975V640.62C463.59 644.555 466.78 647.745 470.715 647.745H636.87C640.805 647.745 643.995 644.555 643.995 640.62V543.975C643.995 540.04 640.805 536.85 636.87 536.85Z" fill="white" stroke="#263238" stroke-linecap="round" stroke-linejoin="round"/>
<path d="M480.856 585C479.089 585 477.395 584.298 476.146 583.049C474.897 581.8 474.196 580.106 474.196 578.34V560.34C474.194 559.464 474.364 558.596 474.698 557.787C475.032 556.977 475.522 556.241 476.141 555.621C476.76 555.001 477.494 554.509 478.303 554.173C479.112 553.838 479.98 553.665 480.856 553.665C482.626 553.665 484.324 554.368 485.575 555.62C486.827 556.872 487.531 558.57 487.531 560.34V578.34C487.531 579.216 487.358 580.083 487.022 580.892C486.687 581.701 486.195 582.436 485.575 583.055C484.955 583.673 484.219 584.163 483.409 584.497C482.599 584.831 481.731 585.002 480.856 585Z" fill="#263238" stroke="#263238" stroke-width="1.01" stroke-linecap="round" stroke-linejoin="round"/>
<path d="M485.37 559.725V570.885" stroke="white" stroke-width="1.01" stroke-linecap="round" stroke-linejoin="round"/>
<path d="M485.37 573.765V579.885" stroke="white" stroke-width="1.01" stroke-linecap="round" stroke-linejoin="round"/>
<path d="M510 585C508.234 585 506.54 584.298 505.291 583.049C504.042 581.8 503.34 580.106 503.34 578.34V560.34C503.338 559.464 503.509 558.596 503.843 557.787C504.177 556.977 504.667 556.241 505.286 555.621C505.904 555.001 506.639 554.509 507.448 554.173C508.257 553.838 509.125 553.665 510 553.665C510.876 553.665 511.744 553.838 512.553 554.173C513.362 554.509 514.096 555.001 514.715 555.621C515.334 556.241 515.824 556.977 516.158 557.787C516.492 558.596 516.662 559.464 516.66 560.34V578.34C516.66 580.106 515.959 581.8 514.71 583.049C513.461 584.298 511.767 585 510 585Z" fill="#263238" stroke="#263238" stroke-width="1.01" stroke-linecap="round" stroke-linejoin="round"/>
<path d="M514.531 559.725V570.885" stroke="white" stroke-width="1.01" stroke-linecap="round" stroke-linejoin="round"/>
<path d="M514.531 573.765V579.885" stroke="white" stroke-width="1.01" stroke-linecap="round" stroke-linejoin="round"/>
<path d="M539.206 585C537.44 585 535.746 584.298 534.497 583.049C533.248 581.8 532.546 580.106 532.546 578.34V560.34C532.544 559.464 532.715 558.596 533.049 557.787C533.382 556.977 533.873 556.241 534.491 555.621C535.11 555.001 535.845 554.509 536.654 554.173C537.463 553.838 538.33 553.665 539.206 553.665C540.082 553.665 540.949 553.838 541.758 554.173C542.567 554.509 543.302 555.001 543.921 555.621C544.539 556.241 545.029 556.977 545.363 557.787C545.697 558.596 545.868 559.464 545.866 560.34V578.34C545.866 580.106 545.164 581.8 543.915 583.049C542.666 584.298 540.972 585 539.206 585Z" fill="#263238" stroke="#263238" stroke-width="1.01" stroke-linecap="round" stroke-linejoin="round"/>
<path d="M543.705 559.725V570.885" stroke="white" stroke-width="1.01" stroke-linecap="round" stroke-linejoin="round"/>
<path d="M543.705 573.765V579.885" stroke="white" stroke-width="1.01" stroke-linecap="round" stroke-linejoin="round"/>
<path d="M568.38 585C566.614 585 564.92 584.298 563.671 583.049C562.422 581.8 561.72 580.106 561.72 578.34V560.34C561.718 559.464 561.889 558.596 562.223 557.787C562.557 556.977 563.047 556.241 563.666 555.621C564.284 555.001 565.019 554.509 565.828 554.173C566.637 553.838 567.504 553.665 568.38 553.665C569.256 553.665 570.123 553.838 570.932 554.173C571.741 554.509 572.476 555.001 573.095 555.621C573.713 556.241 574.204 556.977 574.538 557.787C574.871 558.596 575.042 559.464 575.04 560.34V578.34C575.04 580.106 574.339 581.8 573.09 583.049C571.841 584.298 570.147 585 568.38 585Z" fill="#263238" stroke="#263238" stroke-width="1.01" stroke-linecap="round" stroke-linejoin="round"/>
<path d="M572.88 559.725V570.885" stroke="white" stroke-width="1.01" stroke-linecap="round" stroke-linejoin="round"/>
<path d="M572.88 573.765V579.885" stroke="white" stroke-width="1.01" stroke-linecap="round" stroke-linejoin="round"/>
<path d="M597.555 585C596.679 585.002 595.811 584.831 595.002 584.497C594.192 584.163 593.456 583.673 592.836 583.055C592.216 582.436 591.724 581.701 591.388 580.892C591.053 580.083 590.88 579.216 590.88 578.34V560.34C590.88 558.57 591.583 556.872 592.835 555.62C594.087 554.368 595.785 553.665 597.555 553.665C598.431 553.665 599.298 553.838 600.107 554.173C600.916 554.509 601.651 555.001 602.269 555.621C602.888 556.241 603.378 556.977 603.712 557.787C604.046 558.596 604.217 559.464 604.215 560.34V578.34C604.215 580.106 603.513 581.8 602.264 583.049C601.015 584.298 599.321 585 597.555 585Z" fill="#263238" stroke="#263238" stroke-width="1.01" stroke-linecap="round" stroke-linejoin="round"/>
<path d="M602.056 559.725V570.885" stroke="white" stroke-width="1.01" stroke-linecap="round" stroke-linejoin="round"/>
<path d="M602.056 573.765V579.885" stroke="white" stroke-width="1.01" stroke-linecap="round" stroke-linejoin="round"/>
<path d="M626.716 585C624.949 585 623.255 584.298 622.006 583.049C620.757 581.8 620.056 580.106 620.056 578.34V560.34C620.054 559.464 620.225 558.596 620.558 557.787C620.892 556.977 621.382 556.241 622.001 555.621C622.62 555.001 623.355 554.509 624.164 554.173C624.973 553.838 625.84 553.665 626.716 553.665C627.592 553.665 628.459 553.838 629.268 554.173C630.077 554.509 630.812 555.001 631.43 555.621C632.049 556.241 632.539 556.977 632.873 557.787C633.207 558.596 633.378 559.464 633.376 560.34V578.34C633.376 580.106 632.674 581.8 631.425 583.049C630.176 584.298 628.482 585 626.716 585Z" fill="#263238" stroke="#263238" stroke-width="1.01" stroke-linecap="round" stroke-linejoin="round"/>
<path d="M631.215 559.725V570.885" stroke="white" stroke-width="1.01" stroke-linecap="round" stroke-linejoin="round"/>
<path d="M631.215 573.765V579.885" stroke="white" stroke-width="1.01" stroke-linecap="round" stroke-linejoin="round"/>
<path d="M480.856 632.82C479.089 632.82 477.395 632.118 476.146 630.869C474.897 629.62 474.196 627.926 474.196 626.16V608.16C474.196 606.394 474.897 604.7 476.146 603.451C477.395 602.202 479.089 601.5 480.856 601.5C481.731 601.498 482.599 601.669 483.409 602.003C484.219 602.337 484.955 602.827 485.575 603.445C486.195 604.064 486.687 604.799 487.022 605.608C487.358 606.417 487.531 607.284 487.531 608.16V626.16C487.531 627.036 487.358 627.903 487.022 628.712C486.687 629.521 486.195 630.256 485.575 630.875C484.955 631.493 484.219 631.984 483.409 632.317C482.599 632.651 481.731 632.822 480.856 632.82Z" fill="#263238" stroke="#263238" stroke-width="1.01" stroke-linecap="round" stroke-linejoin="round"/>
<path d="M485.37 607.62V618.78" stroke="white" stroke-width="1.01" stroke-linecap="round" stroke-linejoin="round"/>
<path d="M485.37 621.66V627.78" stroke="white" stroke-width="1.01" stroke-linecap="round" stroke-linejoin="round"/>
<path d="M510 632.82C508.234 632.82 506.54 632.118 505.291 630.869C504.042 629.62 503.34 627.926 503.34 626.16V608.16C503.34 606.394 504.042 604.7 505.291 603.451C506.54 602.202 508.234 601.5 510 601.5C510.876 601.498 511.742 601.669 512.551 602.003C513.36 602.337 514.095 602.827 514.714 603.446C515.333 604.065 515.823 604.8 516.157 605.609C516.491 606.418 516.662 607.285 516.66 608.16V626.16C516.662 627.035 516.491 627.902 516.157 628.711C515.823 629.52 515.333 630.255 514.714 630.874C514.095 631.493 513.36 631.983 512.551 632.317C511.742 632.651 510.876 632.822 510 632.82Z" fill="#263238" stroke="#263238" stroke-width="1.01" stroke-linecap="round" stroke-linejoin="round"/>
<path d="M514.531 607.62V618.78" stroke="white" stroke-width="1.01" stroke-linecap="round" stroke-linejoin="round"/>
<path d="M514.531 621.66V627.78" stroke="white" stroke-width="1.01" stroke-linecap="round" stroke-linejoin="round"/>
<path d="M539.206 632.82C537.44 632.82 535.746 632.118 534.497 630.869C533.248 629.62 532.546 627.926 532.546 626.16V608.16C532.546 606.394 533.248 604.7 534.497 603.451C535.746 602.202 537.44 601.5 539.206 601.5C540.972 601.5 542.666 602.202 543.915 603.451C545.164 604.7 545.866 606.394 545.866 608.16V626.16C545.866 627.926 545.164 629.62 543.915 630.869C542.666 632.118 540.972 632.82 539.206 632.82Z" fill="#263238" stroke="#263238" stroke-width="1.01" stroke-linecap="round" stroke-linejoin="round"/>
<path d="M543.705 607.62V618.78" stroke="white" stroke-width="1.01" stroke-linecap="round" stroke-linejoin="round"/>
<path d="M543.705 621.66V627.78" stroke="white" stroke-width="1.01" stroke-linecap="round" stroke-linejoin="round"/>
<path d="M568.38 632.82C567.505 632.822 566.638 632.651 565.829 632.317C565.02 631.983 564.285 631.493 563.666 630.874C563.048 630.255 562.557 629.52 562.223 628.711C561.889 627.902 561.718 627.035 561.72 626.16V608.16C561.718 607.285 561.889 606.418 562.223 605.609C562.557 604.8 563.048 604.065 563.666 603.446C564.285 602.827 565.02 602.337 565.829 602.003C566.638 601.669 567.505 601.498 568.38 601.5C570.147 601.5 571.841 602.202 573.09 603.451C574.339 604.7 575.04 606.394 575.04 608.16V626.16C575.04 627.926 574.339 629.62 573.09 630.869C571.841 632.118 570.147 632.82 568.38 632.82Z" fill="#263238" stroke="#263238" stroke-width="1.01" stroke-linecap="round" stroke-linejoin="round"/>
<path d="M572.88 607.62V618.78" stroke="white" stroke-width="1.01" stroke-linecap="round" stroke-linejoin="round"/>
<path d="M572.88 621.66V627.78" stroke="white" stroke-width="1.01" stroke-linecap="round" stroke-linejoin="round"/>
<path d="M597.555 632.82C596.679 632.822 595.811 632.651 595.002 632.317C594.192 631.984 593.456 631.493 592.836 630.875C592.216 630.256 591.724 629.521 591.388 628.712C591.053 627.903 590.88 627.036 590.88 626.16V608.16C590.88 607.284 591.053 606.417 591.388 605.608C591.724 604.799 592.216 604.064 592.836 603.445C593.456 602.827 594.192 602.337 595.002 602.003C595.811 601.669 596.679 601.498 597.555 601.5C599.321 601.5 601.015 602.202 602.264 603.451C603.513 604.7 604.215 606.394 604.215 608.16V626.16C604.215 627.926 603.513 629.62 602.264 630.869C601.015 632.118 599.321 632.82 597.555 632.82Z" fill="#263238" stroke="#263238" stroke-width="1.01" stroke-linecap="round" stroke-linejoin="round"/>
<path d="M602.056 607.62V618.78" stroke="white" stroke-width="1.01" stroke-linecap="round" stroke-linejoin="round"/>
<path d="M602.056 621.66V627.78" stroke="white" stroke-width="1.01" stroke-linecap="round" stroke-linejoin="round"/>
<path d="M626.716 632.82C624.949 632.82 623.255 632.118 622.006 630.869C620.757 629.62 620.056 627.926 620.056 626.16V608.16C620.056 606.394 620.757 604.7 622.006 603.451C623.255 602.202 624.949 601.5 626.716 601.5C627.591 601.498 628.458 601.669 629.267 602.003C630.076 602.337 630.811 602.827 631.429 603.446C632.048 604.065 632.539 604.8 632.873 605.609C633.207 606.418 633.378 607.285 633.376 608.16V626.16C633.378 627.035 633.207 627.902 632.873 628.711C632.539 629.52 632.048 630.255 631.429 630.874C630.811 631.493 630.076 631.983 629.267 632.317C628.458 632.651 627.591 632.822 626.716 632.82Z" fill="#263238" stroke="#263238" stroke-width="1.01" stroke-linecap="round" stroke-linejoin="round"/>
<path d="M631.215 607.62V618.78" stroke="white" stroke-width="1.01" stroke-linecap="round" stroke-linejoin="round"/>
<path d="M631.215 621.66V627.78" stroke="white" stroke-width="1.01" stroke-linecap="round" stroke-linejoin="round"/>
<path d="M495.615 542.61V546.36" stroke="#263238" stroke-width="0.5" stroke-linecap="round" stroke-linejoin="round"/>
<path d="M495.615 553.32V633.345" stroke="#263238" stroke-width="0.5" stroke-linecap="round" stroke-linejoin="round" stroke-dasharray="4.64 4.64"/>
<path d="M495.615 636.825V640.575" stroke="#263238" stroke-width="0.5" stroke-linecap="round" stroke-linejoin="round"/>
<path d="M524.791 542.61V546.36" stroke="#263238" stroke-width="0.5" stroke-linecap="round" stroke-linejoin="round"/>
<path d="M524.791 553.32V633.345" stroke="#263238" stroke-width="0.5" stroke-linecap="round" stroke-linejoin="round" stroke-dasharray="4.64 4.64"/>
<path d="M524.791 636.825V640.575" stroke="#263238" stroke-width="0.5" stroke-linecap="round" stroke-linejoin="round"/>
<path d="M553.965 542.61V546.36" stroke="#263238" stroke-width="0.5" stroke-linecap="round" stroke-linejoin="round"/>
<path d="M553.965 553.32V633.345" stroke="#263238" stroke-width="0.5" stroke-linecap="round" stroke-linejoin="round" stroke-dasharray="4.64 4.64"/>
<path d="M553.965 636.825V640.575" stroke="#263238" stroke-width="0.5" stroke-linecap="round" stroke-linejoin="round"/>
<path d="M583.125 542.61V546.36" stroke="#263238" stroke-width="0.5" stroke-linecap="round" stroke-linejoin="round"/>
<path d="M583.125 553.32V633.345" stroke="#263238" stroke-width="0.5" stroke-linecap="round" stroke-linejoin="round" stroke-dasharray="4.64 4.64"/>
<path d="M583.125 636.825V640.575" stroke="#263238" stroke-width="0.5" stroke-linecap="round" stroke-linejoin="round"/>
<path d="M612.301 542.61V546.36" stroke="#263238" stroke-width="0.5" stroke-linecap="round" stroke-linejoin="round"/>
<path d="M612.301 553.32V633.345" stroke="#263238" stroke-width="0.5" stroke-linecap="round" stroke-linejoin="round" stroke-dasharray="4.64 4.64"/>
<path d="M612.301 636.825V640.575" stroke="#263238" stroke-width="0.5" stroke-linecap="round" stroke-linejoin="round"/>
<path d="M468.24 592.305H638.595" stroke="#263238" stroke-width="0.5" stroke-linecap="round" stroke-linejoin="round" stroke-dasharray="5 5"/>
<path d="M631.111 552.195V527.7H591.496V552.195L582.001 565.2C580.666 567.04 579.946 569.256 579.946 571.53V647.235H642.601V571.5C642.6 569.226 641.881 567.01 640.546 565.17L631.111 552.195Z" fill="#263238" stroke="#263238" stroke-width="1.01" stroke-linecap="round" stroke-linejoin="round"/>
<path d="M631.126 516.465H591.661V520.71H631.126V516.465Z" fill="#263238" stroke="#263238" stroke-width="1.01" stroke-linecap="round" stroke-linejoin="round"/>
<path d="M636.855 506.82H585.735V517.695H636.855V506.82Z" fill="#97C7FF" stroke="#263238" stroke-width="1.01" stroke-linecap="round" stroke-linejoin="round"/>
<path d="M634.95 520.5H587.64C586.588 520.5 585.735 521.353 585.735 522.405V527.235C585.735 528.287 586.588 529.14 587.64 529.14H634.95C636.002 529.14 636.855 528.287 636.855 527.235V522.405C636.855 521.353 636.002 520.5 634.95 520.5Z" fill="#263238" stroke="#263238" stroke-width="1.01" stroke-linecap="round" stroke-linejoin="round"/>
<path d="M620.461 576.165H579.96V626.595H620.461V576.165Z" fill="#97C7FF" stroke="#263238" stroke-width="1.01" stroke-linecap="round" stroke-linejoin="round"/>
<path d="M381.465 173.52H182.4C170.371 173.52 160.62 183.271 160.62 195.3V625.23C160.62 637.259 170.371 647.01 182.4 647.01H381.465C393.494 647.01 403.245 637.259 403.245 625.23V195.3C403.245 183.271 393.494 173.52 381.465 173.52Z" fill="#263238"/>
<path opacity="0.2" d="M181.5 173.52C175.955 173.52 170.636 175.723 166.715 179.644C162.793 183.566 160.59 188.884 160.59 194.43V626.1C160.588 629.159 161.258 632.182 162.554 634.953C163.85 637.724 165.74 640.176 168.09 642.135L309.645 173.52H181.5Z" fill="white"/>
<path d="M290.191 633.315C290.191 631.683 289.707 630.088 288.8 628.731C287.894 627.375 286.605 626.317 285.098 625.693C283.59 625.069 281.932 624.905 280.331 625.223C278.731 625.542 277.261 626.328 276.107 627.481C274.953 628.635 274.168 630.105 273.849 631.705C273.531 633.306 273.694 634.965 274.319 636.472C274.943 637.98 276.001 639.268 277.357 640.175C278.714 641.081 280.309 641.565 281.941 641.565C284.129 641.565 286.227 640.696 287.774 639.149C289.322 637.601 290.191 635.503 290.191 633.315V633.315Z" stroke="white" stroke-linecap="round" stroke-linejoin="round"/>
<path d="M381.465 173.52H182.4C170.371 173.52 160.62 183.271 160.62 195.3V625.23C160.62 637.259 170.371 647.01 182.4 647.01H381.465C393.494 647.01 403.245 637.259 403.245 625.23V195.3C403.245 183.271 393.494 173.52 381.465 173.52Z" stroke="#263238" stroke-linecap="round" stroke-linejoin="round"/>
<path d="M392.474 205.68H171.419V618.915H392.474V205.68Z" fill="#97C7FF"/>
<path d="M351 409.59L315.96 377.925L281.94 378.51L247.92 377.925L212.88 409.59L130.02 464.16V625.17H277.56H286.32H433.86V464.16L351 409.59Z" fill="white" stroke="#263238" stroke-width="1.01" stroke-linecap="round" stroke-linejoin="round"/>
<path d="M279.105 528.705L264 550.125C264 550.125 282 541.965 299.34 534.9C316.68 527.835 338.475 505.545 343.365 497.4C348.255 489.255 355.365 477.285 355.365 477.285L333.585 460.5H357C357 460.5 356.445 435 349.38 414.285" stroke="#263238" stroke-width="1.01" stroke-linecap="round" stroke-linejoin="round"/>
<path d="M272.205 538.065C269.67 537 267.105 535.935 264.54 534.9C247.155 527.835 225.405 505.545 220.515 497.4C215.625 489.255 208.515 477.285 208.515 477.285L230.31 460.5H207C207 460.5 207.555 435 214.62 414.285" stroke="#263238" stroke-width="1.01" stroke-linecap="round" stroke-linejoin="round"/>
<path d="M244.905 380.325C244.905 380.325 238.14 487.74 279.105 528.705C279.105 528.705 322.32 499.035 322.32 381.615L244.905 380.325Z" fill="white"/>
<path d="M267.779 258.09H302.624C312.614 258.09 322.194 262.058 329.258 269.122C336.321 276.185 340.289 285.766 340.289 295.755V373.92C340.291 380.56 338.985 387.136 336.446 393.271C333.907 399.407 330.184 404.982 325.49 409.679C320.796 414.376 315.223 418.102 309.089 420.645C302.955 423.188 296.38 424.498 289.739 424.5H280.739C274.099 424.5 267.524 423.192 261.389 420.651C255.254 418.11 249.68 414.385 244.985 409.69C240.289 404.994 236.565 399.42 234.023 393.285C231.482 387.15 230.174 380.575 230.174 373.935V295.755C230.174 285.766 234.143 276.185 241.206 269.122C248.27 262.058 257.85 258.09 267.839 258.09H267.779Z" fill="#97C7FF"/>
<path opacity="0.5" d="M267.779 258.09H302.624C312.614 258.09 322.194 262.058 329.258 269.122C336.321 276.185 340.289 285.766 340.289 295.755V373.92C340.291 380.56 338.985 387.136 336.446 393.271C333.907 399.407 330.184 404.982 325.49 409.679C320.796 414.376 315.223 418.102 309.089 420.645C302.955 423.188 296.38 424.498 289.739 424.5H280.739C274.099 424.5 267.524 423.192 261.389 420.651C255.254 418.11 249.68 414.385 244.985 409.69C240.289 404.994 236.565 399.42 234.023 393.285C231.482 387.15 230.174 380.575 230.174 373.935V295.755C230.174 285.766 234.143 276.185 241.206 269.122C248.27 262.058 257.85 258.09 267.839 258.09H267.779Z" fill="white"/>
<path d="M244.905 380.325C244.905 380.325 238.14 487.74 279.105 528.705C279.105 528.705 322.32 499.035 322.32 381.615L244.905 380.325Z" stroke="#263238" stroke-width="1.01" stroke-linecap="round" stroke-linejoin="round"/>
<path d="M262.14 371.175C262.14 371.175 258.39 418.05 281.025 435.93C281.025 435.93 304.905 422.985 304.905 371.745L262.14 371.175Z" stroke="#263238" stroke-width="1.01" stroke-linecap="round" stroke-linejoin="round"/>
<path d="M254.579 450.645L281.024 435.93L310.709 456.45" stroke="#263238" stroke-width="1.01" stroke-linecap="round" stroke-linejoin="round"/>
<path d="M288.134 459.675L293.294 444.84L281.024 435.93L264.899 444.84L273.284 458.34L260.054 498.075C264.824 509.955 271.034 520.575 279.104 528.66C279.104 528.66 290.594 520.77 301.724 497.025L288.134 459.675Z" fill="#97C7FF" stroke="#263238" stroke-width="1.01" stroke-linecap="round" stroke-linejoin="round"/>
<path d="M340.993 540.664C352.742 538.749 360.714 527.671 358.799 515.922C356.883 504.172 345.805 496.201 334.056 498.116C322.307 500.032 314.335 511.109 316.25 522.859C318.166 534.608 329.244 542.58 340.993 540.664Z" fill="white" stroke="#263238" stroke-width="1.01" stroke-linecap="round" stroke-linejoin="round"/>
<path d="M351.833 525.272C355.087 517.357 351.309 508.303 343.394 505.049C335.48 501.795 326.425 505.573 323.171 513.487C319.917 521.402 323.695 530.456 331.61 533.711C339.525 536.965 348.579 533.187 351.833 525.272Z" fill="white" stroke="#263238" stroke-width="1.01" stroke-linecap="round" stroke-linejoin="round"/>
<path d="M337.499 522.69C336.624 522.69 335.785 522.342 335.166 521.723C334.547 521.105 334.199 520.265 334.199 519.39V392.745C334.199 391.87 334.547 391.03 335.166 390.411C335.785 389.793 336.624 389.445 337.499 389.445C338.374 389.445 339.214 389.793 339.833 390.411C340.451 391.03 340.799 391.87 340.799 392.745V519.39C340.801 519.824 340.717 520.254 340.552 520.655C340.387 521.056 340.144 521.421 339.837 521.728C339.53 522.035 339.166 522.278 338.764 522.443C338.363 522.608 337.933 522.692 337.499 522.69Z" fill="#263238"/>
<path d="M233.354 568.62H233.039C230.039 568.11 201.254 540.12 198.539 532.62C195.824 525.12 196.589 513.12 196.619 512.67C196.647 512.232 196.848 511.824 197.177 511.534C197.506 511.244 197.937 511.097 198.374 511.125C198.812 511.153 199.221 511.353 199.51 511.682C199.8 512.012 199.947 512.442 199.919 512.88C199.919 512.985 199.244 524.655 201.644 531.54C203.849 537.825 229.469 562.92 233.519 565.365C235.769 564.66 244.019 557.265 247.019 549.69C247.099 549.488 247.218 549.304 247.369 549.148C247.52 548.992 247.7 548.867 247.899 548.781C248.099 548.694 248.313 548.648 248.53 548.644C248.747 548.641 248.963 548.68 249.164 548.76C249.366 548.84 249.551 548.958 249.707 549.109C249.863 549.26 249.987 549.441 250.074 549.64C250.16 549.839 250.206 550.053 250.21 550.27C250.213 550.487 250.174 550.703 250.094 550.905C246.974 558.93 237.149 568.62 233.354 568.62Z" fill="white" stroke="#263238" stroke-width="1.01" stroke-linecap="round" stroke-linejoin="round"/>
<path d="M207.779 568.62C203.969 568.62 194.159 558.93 190.979 550.815C190.818 550.407 190.826 549.952 191 549.55C191.175 549.148 191.502 548.831 191.909 548.67C192.317 548.509 192.772 548.516 193.175 548.691C193.577 548.865 193.893 549.192 194.054 549.6C197.054 557.175 205.289 564.6 207.554 565.275C211.604 562.83 237.224 537.735 239.429 531.45C241.829 524.565 241.169 512.895 241.154 512.79C241.127 512.352 241.274 511.922 241.563 511.592C241.853 511.263 242.262 511.063 242.699 511.035C243.137 511.007 243.568 511.154 243.897 511.444C244.226 511.734 244.427 512.142 244.454 512.58C244.454 513.09 245.174 525.03 242.534 532.53C239.894 540.03 211.169 568.08 208.034 568.53L207.779 568.62Z" fill="white" stroke="#263238" stroke-width="1.01" stroke-linecap="round" stroke-linejoin="round"/>
<path d="M220.965 456.675C220.091 456.671 219.253 456.322 218.635 455.704C218.017 455.086 217.668 454.249 217.665 453.375V398.13C217.665 397.255 218.012 396.415 218.631 395.797C219.25 395.178 220.089 394.83 220.965 394.83C221.84 394.83 222.679 395.178 223.298 395.797C223.917 396.415 224.265 397.255 224.265 398.13V453.375C224.265 453.808 224.179 454.237 224.013 454.638C223.848 455.038 223.604 455.402 223.298 455.708C222.992 456.015 222.628 456.258 222.227 456.424C221.827 456.59 221.398 456.675 220.965 456.675Z" fill="#263238"/>
<path d="M242.52 519.33C241.646 519.326 240.809 518.977 240.191 518.359C239.573 517.741 239.224 516.904 239.22 516.03V476.28C239.22 471.259 237.225 466.444 233.675 462.894C230.125 459.344 225.31 457.35 220.29 457.35C215.269 457.35 210.454 459.344 206.904 462.894C203.354 466.444 201.36 471.259 201.36 476.28V516C201.36 516.875 201.012 517.714 200.393 518.333C199.774 518.952 198.935 519.3 198.06 519.3C197.185 519.3 196.345 518.952 195.726 518.333C195.108 517.714 194.76 516.875 194.76 516V476.25C194.76 469.487 197.446 463.001 202.229 458.219C207.011 453.436 213.497 450.75 220.26 450.75C227.023 450.75 233.509 453.436 238.291 458.219C243.073 463.001 245.76 469.487 245.76 476.25V516C245.764 516.869 245.427 517.705 244.821 518.327C244.215 518.95 243.389 519.31 242.52 519.33Z" fill="#263238"/>
<path d="M187.931 544.671L187.374 545.103C185.7 546.404 185.397 548.816 186.698 550.491L189.136 553.63C190.437 555.305 192.85 555.608 194.524 554.307L195.081 553.875C196.756 552.574 197.059 550.161 195.758 548.487L193.319 545.347C192.018 543.673 189.606 543.37 187.931 544.671Z" fill="white" stroke="#263238" stroke-width="1.01" stroke-linecap="round" stroke-linejoin="round"/>
<path d="M245.475 553.855L246.032 554.288C247.707 555.589 250.119 555.286 251.42 553.611L253.859 550.472C255.16 548.797 254.856 546.384 253.182 545.083L252.625 544.651C250.95 543.35 248.538 543.653 247.237 545.328L244.798 548.467C243.497 550.142 243.8 552.554 245.475 553.855Z" fill="white" stroke="#263238" stroke-width="1.01" stroke-linecap="round" stroke-linejoin="round"/>
<path d="M227.265 310.905H225.87C221.545 310.905 218.04 314.411 218.04 318.735V332.79C218.04 337.114 221.545 340.62 225.87 340.62H227.265C231.589 340.62 235.095 337.114 235.095 332.79V318.735C235.095 314.411 231.589 310.905 227.265 310.905Z" fill="white" stroke="#263238" stroke-width="1.01" stroke-linecap="round" stroke-linejoin="round"/>
<path d="M342.524 310.905H341.129C336.805 310.905 333.299 314.411 333.299 318.735V332.79C333.299 337.114 336.805 340.62 341.129 340.62H342.524C346.849 340.62 350.354 337.114 350.354 332.79V318.735C350.354 314.411 346.849 310.905 342.524 310.905Z" fill="white" stroke="#263238" stroke-width="1.01" stroke-linecap="round" stroke-linejoin="round"/>
<path d="M267.78 236.46H302.625C312.614 236.46 322.194 240.428 329.258 247.492C336.321 254.555 340.29 264.136 340.29 274.125V352.29C340.29 365.701 334.962 378.562 325.479 388.045C315.997 397.528 303.135 402.855 289.725 402.855H280.725C274.084 402.855 267.509 401.547 261.374 399.006C255.239 396.465 249.665 392.74 244.97 388.045C240.274 383.349 236.55 377.775 234.009 371.64C231.468 365.505 230.16 358.93 230.16 352.29V274.125C230.16 264.143 234.122 254.57 241.176 247.508C248.229 240.445 257.798 236.472 267.78 236.46Z" fill="white" stroke="#263238" stroke-width="1.01" stroke-linecap="round" stroke-linejoin="round"/>
<path d="M272.249 302.235H254.879C253.314 302.235 252.044 303.504 252.044 305.07V305.58C252.044 307.146 253.314 308.415 254.879 308.415H272.249C273.815 308.415 275.084 307.146 275.084 305.58V305.07C275.084 303.504 273.815 302.235 272.249 302.235Z" fill="#263238" stroke="#263238" stroke-width="1.01" stroke-linecap="round" stroke-linejoin="round"/>
<path d="M317.774 302.235H300.404C298.838 302.235 297.569 303.504 297.569 305.07V305.58C297.569 307.146 298.838 308.415 300.404 308.415H317.774C319.34 308.415 320.609 307.146 320.609 305.58V305.07C320.609 303.504 319.34 302.235 317.774 302.235Z" fill="#263238" stroke="#263238" stroke-width="1.01" stroke-linecap="round" stroke-linejoin="round"/>
<path d="M269.999 321.075C269.999 324.645 268.364 327.525 266.339 327.525C264.314 327.525 262.694 324.645 262.694 321.075C262.694 317.505 264.329 314.61 266.339 314.61C268.349 314.61 269.999 317.505 269.999 321.075Z" fill="#263238" stroke="#263238" stroke-width="1.01" stroke-linecap="round" stroke-linejoin="round"/>
<path d="M311.07 321.075C311.07 324.645 309.435 327.525 307.41 327.525C305.385 327.525 303.75 324.645 303.75 321.075C303.75 317.505 305.385 314.61 307.41 314.61C309.435 314.61 311.07 317.505 311.07 321.075Z" fill="#263238" stroke="#263238" stroke-width="1.01" stroke-linecap="round" stroke-linejoin="round"/>
<path d="M304.905 236.46H265.5C256.115 236.46 247.115 240.188 240.479 246.824C233.843 253.46 230.115 262.46 230.115 271.845V354.99C230.115 367.685 235.158 379.859 244.134 388.836C253.111 397.812 265.286 402.855 277.98 402.855H292.5C298.786 402.857 305.011 401.62 310.82 399.215C316.628 396.811 321.905 393.285 326.35 388.84C330.795 384.395 334.321 379.118 336.726 373.309C339.13 367.501 340.367 361.276 340.365 354.99V271.845C340.365 267.192 339.447 262.584 337.664 258.286C335.881 253.988 333.268 250.084 329.975 246.797C326.681 243.511 322.771 240.906 318.469 239.132C314.168 237.358 309.558 236.45 304.905 236.46ZM331.905 343.275C331.905 343.275 331.905 353.385 321.795 363.51C321.795 363.51 311.115 349.455 306.615 348.33C303.705 347.61 292.875 347.82 285.525 348.06C278.19 347.82 267.345 347.61 264.525 348.33C260.025 349.455 249.345 363.51 249.345 363.51C239.235 353.385 239.235 343.275 239.235 343.275V297.18L244.5 290.25C246.514 287.674 247.668 284.53 247.8 281.263C247.932 277.996 247.035 274.77 245.235 272.04C243.344 269.14 242.521 265.673 242.907 262.233C243.292 258.792 244.863 255.594 247.35 253.185L247.455 253.095C249.863 250.765 252.986 249.315 256.32 248.977C259.654 248.64 263.004 249.435 265.83 251.235L273.69 257.4C277.118 260.076 281.342 261.53 285.69 261.53C290.039 261.53 294.262 260.076 297.69 257.4L305.52 251.235C308.362 249.424 311.73 248.623 315.083 248.961C318.435 249.298 321.576 250.754 324 253.095L324.09 253.185C326.58 255.64 328.139 258.884 328.5 262.362C328.861 265.84 328.002 269.336 326.07 272.25C324.333 274.972 323.485 278.166 323.644 281.391C323.802 284.616 324.959 287.712 326.955 290.25L332.4 297.18L331.905 343.275Z" fill="#263238" stroke="#263238" stroke-width="1.01" stroke-linecap="round" stroke-linejoin="round"/>
<path d="M293.64 341.355C293.64 341.355 300.39 340.455 300.39 344.355C300.39 348.255 296.445 351.09 288.585 348.285" fill="white"/>
<path d="M293.64 341.355C293.64 341.355 300.39 340.455 300.39 344.355C300.39 348.255 296.445 351.09 288.585 348.285" stroke="#263238" stroke-width="1.01" stroke-linecap="round" stroke-linejoin="round"/>
<path d="M293.069 309.54V342.15C293.069 343.938 292.36 345.652 291.097 346.918C289.835 348.183 288.122 348.896 286.334 348.9H280.334C276.044 349.2 274.544 348.15 274.034 346.335C273.875 345.731 273.843 345.1 273.942 344.482C274.04 343.865 274.265 343.275 274.604 342.75C274.604 341.07 281.774 341.07 281.774 341.07" fill="white"/>
<path d="M293.069 309.54V342.15C293.069 343.938 292.36 345.652 291.097 346.918C289.835 348.183 288.122 348.896 286.334 348.9H280.334C276.044 349.2 274.544 348.15 274.034 346.335C273.875 345.731 273.843 345.1 273.942 344.482C274.04 343.865 274.265 343.275 274.604 342.75V342.75C274.604 341.07 281.774 341.07 281.774 341.07" stroke="#263238" stroke-width="1.01" stroke-linecap="round" stroke-linejoin="round"/>
<path d="M286.004 367.5C279.743 367.535 273.583 365.926 268.139 362.835C267.604 362.476 267.229 361.923 267.096 361.292C266.962 360.661 267.08 360.004 267.424 359.458C267.767 358.913 268.311 358.524 268.937 358.373C269.564 358.222 270.225 358.321 270.779 358.65C275.494 361.226 280.786 362.563 286.158 362.537C291.531 362.511 296.809 361.122 301.499 358.5C301.787 358.331 302.106 358.221 302.437 358.179C302.768 358.136 303.104 358.161 303.426 358.251C303.747 358.342 304.046 358.497 304.306 358.706C304.566 358.915 304.781 359.175 304.938 359.47C305.095 359.764 305.191 360.088 305.22 360.42C305.248 360.753 305.209 361.088 305.105 361.405C305.001 361.722 304.834 362.015 304.614 362.266C304.394 362.517 304.125 362.721 303.824 362.865C298.362 365.867 292.237 367.46 286.004 367.5Z" fill="white" stroke="#263238" stroke-width="1.01" stroke-linecap="round" stroke-linejoin="round"/>
<path d="M304.064 330.825H314.954" stroke="#263238" stroke-width="1.01" stroke-linecap="round" stroke-linejoin="round"/>
<path d="M260.804 330.825H271.694" stroke="#263238" stroke-width="1.01" stroke-linecap="round" stroke-linejoin="round"/>
<path d="M217.664 609.36C228.417 609.36 237.134 600.643 237.134 589.89C237.134 579.137 228.417 570.42 217.664 570.42C206.911 570.42 198.194 579.137 198.194 589.89C198.194 600.643 206.911 609.36 217.664 609.36Z" stroke="#263238" stroke-width="0.724166" stroke-linecap="round" stroke-linejoin="round"/>
<path d="M217.634 594.705C216.592 594.705 215.592 594.291 214.855 593.554C214.118 592.817 213.704 591.817 213.704 590.775V578.325C213.704 577.283 214.118 576.283 214.855 575.546C215.592 574.809 216.592 574.395 217.634 574.395C218.676 574.395 219.676 574.809 220.413 575.546C221.15 576.283 221.564 577.283 221.564 578.325V590.775C221.564 591.817 221.15 592.817 220.413 593.554C219.676 594.291 218.676 594.705 217.634 594.705Z" fill="#263238"/>
<path d="M217.665 597.54C215.825 597.536 214.06 596.803 212.759 595.502C211.457 594.2 210.724 592.436 210.72 590.595V584.745C210.72 584.554 210.796 584.371 210.931 584.236C211.066 584.101 211.249 584.025 211.44 584.025C211.535 584.023 211.63 584.04 211.718 584.076C211.807 584.111 211.887 584.164 211.954 584.231C212.021 584.299 212.074 584.379 212.11 584.467C212.145 584.555 212.162 584.65 212.16 584.745V590.595C212.234 592.007 212.847 593.337 213.873 594.311C214.898 595.285 216.259 595.827 217.673 595.827C219.087 595.827 220.447 595.285 221.473 594.311C222.499 593.337 223.112 592.007 223.185 590.595V584.745C223.183 584.65 223.201 584.555 223.236 584.467C223.271 584.379 223.324 584.299 223.392 584.231C223.459 584.164 223.539 584.111 223.627 584.076C223.716 584.04 223.81 584.023 223.905 584.025C224.096 584.025 224.279 584.101 224.414 584.236C224.55 584.371 224.625 584.554 224.625 584.745V590.595C224.621 592.438 223.886 594.205 222.582 595.507C221.277 596.809 219.509 597.54 217.665 597.54Z" fill="#263238"/>
<path d="M217.664 605.01C217.57 605.01 217.477 604.991 217.391 604.955C217.304 604.919 217.226 604.865 217.16 604.798C217.095 604.731 217.043 604.652 217.008 604.564C216.974 604.477 216.957 604.384 216.959 604.29V596.79C216.959 596.591 217.038 596.4 217.179 596.26C217.319 596.119 217.51 596.04 217.709 596.04C217.908 596.04 218.099 596.119 218.239 596.26C218.38 596.4 218.459 596.591 218.459 596.79V604.29C218.462 604.392 218.443 604.493 218.403 604.587C218.363 604.681 218.303 604.765 218.228 604.833C218.152 604.902 218.063 604.953 217.965 604.983C217.868 605.014 217.765 605.023 217.664 605.01Z" fill="#263238"/>
<path d="M222.465 605.4H212.88C212.69 605.396 212.509 605.319 212.375 605.185C212.24 605.051 212.163 604.87 212.16 604.68C212.16 604.489 212.235 604.306 212.37 604.171C212.505 604.036 212.689 603.96 212.88 603.96H222.465C222.656 603.96 222.839 604.036 222.974 604.171C223.109 604.306 223.185 604.489 223.185 604.68C223.181 604.87 223.104 605.051 222.969 605.185C222.835 605.319 222.654 605.396 222.465 605.4Z" fill="#263238"/>
<path d="M346.59 609.36C357.343 609.36 366.06 600.643 366.06 589.89C366.06 579.137 357.343 570.42 346.59 570.42C335.837 570.42 327.12 579.137 327.12 589.89C327.12 600.643 335.837 609.36 346.59 609.36Z" stroke="#263238" stroke-width="0.724166" stroke-linecap="round" stroke-linejoin="round"/>
<path d="M358.604 584.19L352.919 587.475V584.775C352.915 584.161 352.669 583.573 352.233 583.141C351.798 582.708 351.208 582.465 350.594 582.465H337.754C337.45 582.463 337.148 582.521 336.866 582.636C336.584 582.752 336.327 582.921 336.111 583.136C335.895 583.351 335.724 583.606 335.607 583.887C335.49 584.169 335.429 584.47 335.429 584.775V595.125C335.427 595.431 335.486 595.734 335.602 596.017C335.718 596.3 335.89 596.557 336.106 596.773C336.322 596.99 336.579 597.161 336.862 597.277C337.145 597.393 337.448 597.452 337.754 597.45H350.594C350.9 597.45 351.202 597.39 351.484 597.273C351.766 597.156 352.023 596.985 352.238 596.769C352.454 596.553 352.626 596.297 352.742 596.015C352.859 595.733 352.919 595.43 352.919 595.125V592.5L358.604 595.785V584.19Z" fill="#263238"/>
<path d="M282.135 609.36C292.888 609.36 301.605 600.643 301.605 589.89C301.605 579.137 292.888 570.42 282.135 570.42C271.382 570.42 262.665 579.137 262.665 589.89C262.665 600.643 271.382 609.36 282.135 609.36Z" fill="#263238" stroke="#263238" stroke-width="0.724166" stroke-linecap="round" stroke-linejoin="round"/>
<path d="M291.99 585.78H272.28C271.734 585.78 271.195 585.899 270.701 586.131C270.206 586.362 269.769 586.7 269.42 587.119C269.07 587.539 268.818 588.03 268.68 588.558C268.541 589.086 268.521 589.638 268.62 590.175L269.19 593.265C269.231 593.474 269.343 593.663 269.507 593.799C269.671 593.936 269.877 594.012 270.09 594.015H276.09C276.337 594.015 276.573 593.917 276.748 593.742C276.922 593.568 277.02 593.332 277.02 593.085V589.74H287.37V593.085C287.37 593.332 287.468 593.568 287.642 593.742C287.817 593.917 288.053 594.015 288.3 594.015H294.3C294.516 594.015 294.725 593.941 294.892 593.804C295.059 593.667 295.173 593.477 295.215 593.265L295.785 590.175C295.887 589.627 295.864 589.063 295.718 588.525C295.572 587.987 295.307 587.488 294.943 587.066C294.579 586.644 294.124 586.31 293.613 586.087C293.102 585.864 292.547 585.759 291.99 585.78Z" fill="#97C7FF"/>
<path d="M383.774 209.97H365.444V220.02H383.774V209.97Z" stroke="#263238" stroke-width="0.821067" stroke-linecap="round" stroke-linejoin="round"/>
<path d="M379.739 209.97H365.444V220.02H379.739V209.97Z" fill="#263238" stroke="#263238" stroke-width="0.725073" stroke-linecap="round" stroke-linejoin="round"/>
<path d="M386.31 212.775H383.73V217.2H386.31V212.775Z" fill="#263238" stroke="#263238" stroke-width="0.725073" stroke-linecap="round" stroke-linejoin="round"/>
<path d="M178.575 213.075H175.215V218.835H178.575V213.075Z" fill="#263238" stroke="#263238" stroke-width="0.883086" stroke-linecap="round" stroke-linejoin="round"/>
<path d="M183.855 211.065H180.495V218.85H183.855V211.065Z" fill="#263238" stroke="#263238" stroke-width="0.883086" stroke-linecap="round" stroke-linejoin="round"/>
<path d="M189.135 208.665H185.775V218.835H189.135V208.665Z" fill="#263238" stroke="#263238" stroke-width="0.883086" stroke-linecap="round" stroke-linejoin="round"/>
<path d="M392.474 205.68H171.419V618.915H392.474V205.68Z" stroke="#263238" stroke-linecap="round" stroke-linejoin="round"/>
<path d="M120.48 647.01H681.645" stroke="#263238" stroke-width="1.01" stroke-linecap="round" stroke-linejoin="round"/>
<path d="M89.7302 647.01H104.565" stroke="#263238" stroke-width="1.01" stroke-linecap="round" stroke-linejoin="round"/>
</svg>
