<svg width="100" height="100" viewBox="0 0 100 100" fill="none" xmlns="http://www.w3.org/2000/svg">
<g opacity="0.7" clip-path="url(#clip0)">
<path d="M25.6355 14.3045C30.7751 5.33863 37.948 1.86702 44.9752 1.01901C52.0478 0.165526 59.0059 1.9701 63.6064 3.64307L63.7756 3.70457L63.9518 3.688L63.9525 3.68794L63.9528 3.68791L63.9536 3.68783L63.9547 3.68773L63.9647 3.68703C63.9776 3.68615 63.9998 3.68478 64.0307 3.68347C64.0927 3.68084 64.1895 3.67843 64.3167 3.68045C64.5713 3.68449 64.946 3.70623 65.4052 3.77884C66.3239 3.92412 67.5723 4.2716 68.8756 5.08171C71.4474 6.68027 74.3997 10.188 75.2931 17.9972C77.088 33.6888 71.9599 52.9948 60.8482 63.2334L40.1845 60.9884L40.1157 60.9809L40.0466 60.9854L29.8485 61.6431C29.7224 61.4741 29.5519 61.2409 29.3454 60.9471C28.8683 60.2686 28.1992 59.2673 27.4391 57.9867C25.9179 55.4239 24.0372 51.7507 22.5982 47.3116C19.7217 38.4375 18.6203 26.5457 25.6355 14.3045ZM25.6355 14.3045L24.9414 13.9066L25.6355 14.3045Z" fill="#414451" stroke="#2F3A5A" stroke-width="1.6"/>
<path d="M39.6903 58.5772C39.8054 56.1904 39.7292 53.7986 39.4625 51.4246C39.5953 51.3664 39.7512 51.2986 39.9283 51.2226C40.5658 50.9491 41.4767 50.5699 42.5668 50.1484C44.7511 49.3037 47.6367 48.2966 50.4767 47.6275C53.3501 46.9505 56.046 46.6529 57.9155 47.1148C58.8301 47.3407 59.4754 47.7308 59.8755 48.2784C60.2727 48.8217 60.5086 49.63 60.388 50.8559C59.8479 56.3448 60.1012 59.4652 60.5246 61.2465C60.7373 62.1413 60.9979 62.7196 61.2395 63.0949C61.3247 63.2271 61.4076 63.3344 61.4852 63.4211L63.5541 74.9479L57.5619 86.3609L45.9943 87.7397L36.0286 83.5746L34.742 73.7086L37.3493 66.2045L37.3494 66.2046L37.3523 66.1958L38.0593 64.0827C38.6631 63.3769 39.0761 62.5268 39.2569 61.6138C39.3978 61.0702 39.5002 60.5175 39.5635 59.9599C39.6198 59.5193 39.6671 59.06 39.6903 58.5772ZM39.6903 58.5772L38.8913 58.5387M39.6903 58.5772L38.8913 58.5387M38.8913 58.5387C38.8692 58.9959 38.8241 59.4349 38.7693 59.8642L62.2256 63.0178C62.2256 63.0178 60.1122 61.8288 61.1841 50.9343C62.256 40.0397 38.5985 50.9343 38.5985 50.9343C38.9157 53.4559 39.0137 56.0001 38.8913 58.5387Z" fill="#F4BB87" stroke="#2F3A5A" stroke-width="1.6"/>
<path d="M40.1168 99.2L36.2345 75.9845C36.4941 76.0802 36.7889 76.184 37.118 76.2924C38.568 76.7703 40.6837 77.3396 43.3734 77.7187C48.5501 78.4482 55.846 78.4716 64.6005 75.7888V99.2H40.1168Z" fill="#69B0EE" stroke="#2F3A5A" stroke-width="1.6"/>
<path d="M33.737 46.344C33.6266 46.1724 33.5421 46.0372 33.4849 45.9445C33.0424 41.676 33.7028 37.3641 35.404 33.4222C37.6411 28.5392 41.7405 24.7551 46.7868 22.9152L46.7957 22.9119L46.8045 22.9085C48.7804 22.1346 50.8181 21.5284 52.8957 21.0962C55.3412 20.6453 56.814 19.6292 57.6793 18.664C57.6992 18.6418 57.7188 18.6197 57.738 18.5976C59.2989 23.4648 61.8813 26.7491 64.1868 28.8619C65.4761 30.0435 66.6768 30.8571 67.561 31.3778C67.9589 31.6121 68.2933 31.7874 68.5434 31.9105V32.54L69.6171 32.1492C70.5908 31.7948 71.681 32.0438 72.4041 32.7838C72.5755 32.9972 72.6729 33.2607 72.6812 33.5347C72.7034 35.2425 72.4161 36.9404 71.8329 38.5457L71.8293 38.5557L71.8259 38.5658C71.2537 40.2817 70.4337 41.003 69.8482 41.3189C69.5457 41.482 69.28 41.551 69.0994 41.5801C69.0091 41.5947 68.9405 41.5991 68.9004 41.6003C68.882 41.6009 68.8698 41.6008 68.8643 41.6007L68.2463 41.5539L68.0529 42.1535C67.4075 44.1541 65.1337 48.2848 61.84 51.9251C58.533 55.58 54.3722 58.5481 49.9939 58.5838C45.6266 58.6193 41.5089 55.5495 38.3924 52.273C36.8543 50.656 35.6022 49.0332 34.7341 47.8133C34.3006 47.204 33.9641 46.6971 33.737 46.344Z" fill="#FED19A" stroke="#2F3A5A" stroke-width="1.6"/>
<path d="M54.7059 99.2L62.656 64.7519C64.3288 66.5117 66.6157 67.5777 69.0581 67.7161L69.0587 67.7161L73.4226 67.9599C82.5797 68.478 89.7399 76.0545 89.7401 85.2263V96.0586C89.7401 97.7936 88.3336 99.2 86.5988 99.2H54.7059Z" fill="#EEEFEE" stroke="#2F3A5A" stroke-width="1.6"/>
<path d="M30.9419 67.7162L30.9425 67.7161C33.3847 67.5778 35.6715 66.5118 37.3441 64.7521L45.3007 99.2H13.4018C11.667 99.2 10.2604 97.7936 10.2604 96.0587V85.2263C10.2606 76.0546 17.4208 68.478 26.578 67.9599L30.9419 67.7162Z" fill="#EEEFEE" stroke="#2F3A5A" stroke-width="1.6"/>
<path d="M65.3115 85.7604L65.3117 85.7518V85.7433C65.3117 81.6893 66.2526 78.1209 67.7463 75.594C69.2469 73.0553 71.2227 71.6818 73.2919 71.6818C75.3624 71.6818 77.3381 73.0554 78.8384 75.594C80.3317 78.1209 81.272 81.6892 81.2719 85.7431L81.2719 85.7512L81.272 85.7594C81.3415 89.1664 80.566 92.5379 79.0154 95.5723C78.6656 96.2066 78.2561 96.8057 77.7928 97.3615C77.7201 97.3196 77.6543 97.2667 77.5979 97.2047C78.0742 96.6379 78.488 96.0205 78.8313 95.3629L78.8314 95.3629L78.8362 95.3535C80.3417 92.3743 81.0991 89.0736 81.0429 85.7361C81.0418 82.0964 80.2241 78.7075 78.8873 76.2004C77.5727 73.7349 75.6255 71.9096 73.2919 71.9096C70.9583 71.9096 69.0111 73.7349 67.6965 76.2004C66.3598 78.7074 65.5421 82.0959 65.5409 85.7354C65.4783 89.0695 66.2325 92.3684 67.738 95.3441L67.738 95.3441L67.7425 95.3527C68.1015 96.0414 68.5358 96.6875 69.037 97.2792C68.9735 97.3333 68.9022 97.378 68.8255 97.4117C68.3791 96.8866 67.9844 96.3193 67.6468 95.7177C66.0407 92.6489 65.2374 89.2235 65.3115 85.7604Z" fill="#BBBBCD" stroke="#2F3A5A" stroke-width="1.6"/>
<path d="M78.2502 95.7858C78.7018 95.8018 79.0642 96.1717 79.067 96.6275V96.6281C79.0652 97.0884 78.7015 97.4634 78.2457 97.4834L78.2224 97.4759L78.1307 97.4685C77.7891 97.4408 77.502 97.2014 77.4132 96.8707L77.4041 96.8369L77.3921 96.804C77.3742 96.7549 77.3657 96.703 77.367 96.6508L77.3673 96.6387L77.3673 96.6266C77.3651 96.1817 77.7142 95.814 78.1586 95.793L78.2359 95.7893L78.2502 95.7858Z" fill="#575B6D" stroke="#2F3A5A" stroke-width="1.6"/>
<path d="M69.3505 96.6329L69.3505 96.6329L69.3505 96.6362C69.3513 96.7238 69.3344 96.8107 69.3011 96.8917L69.2947 96.907L69.289 96.9227C69.1702 97.249 68.8657 97.4708 68.5192 97.4842H68.4978C68.0286 97.4813 67.65 97.0999 67.6507 96.6307L67.6508 96.6307L67.6507 96.6177C67.6495 96.5359 67.6635 96.4544 67.692 96.3779L67.6968 96.3648L67.7013 96.3515C67.8116 96.0198 68.118 95.7932 68.4675 95.7845L68.4957 95.7845L68.497 95.7845C68.9668 95.7838 69.3485 96.1633 69.3505 96.6329Z" fill="#575B6D" stroke="#2F3A5A" stroke-width="1.6"/>
<path d="M69.34 66.142C71.2493 67.5487 72.6697 69.5186 73.4014 71.7742L73.2894 71.9133V71.9134C73.2398 71.9116 73.1969 71.8781 73.1833 71.8301L73.1783 71.8127L73.1726 71.7955C72.4464 69.6197 71.0721 67.7181 69.2339 66.3457L69.224 66.3383L69.2139 66.3313C69.1623 66.2951 69.1499 66.2243 69.1858 66.1729C69.221 66.1227 69.289 66.1096 69.34 66.142Z" fill="#BBBBCD" stroke="#2F3A5A" stroke-width="1.6"/>
<path d="M27.5385 88.5274C26.9983 71.3343 36.9028 62.7065 38.488 61.4359C38.623 60.9196 38.7208 60.3942 38.7807 59.864L27.5385 88.5274ZM27.5385 88.5274C27.5556 89.0344 27.1588 89.4596 26.6519 89.4773L27.5385 88.5274ZM37.8702 60.5396C37.842 60.6888 37.8105 60.8373 37.7757 60.9852C35.5949 62.8041 26.2072 71.6314 26.7389 88.5526L26.739 88.5545C26.7411 88.6178 26.6934 88.6713 26.6313 88.6773H26.6256C26.5623 88.6772 26.5109 88.6271 26.5089 88.5644L26.5087 88.5586C26.0812 77.9857 30.2478 67.7818 37.8702 60.5396Z" fill="#BBBBCD" stroke="#2F3A5A" stroke-width="1.6"/>
<path d="M30.2156 92.1711C30.2156 94.2542 28.5269 95.9429 26.4438 95.9429C24.3607 95.9429 22.6721 94.2542 22.6721 92.1711C22.6721 90.088 24.3607 88.3994 26.4438 88.3994C28.5269 88.3994 30.2156 90.088 30.2156 92.1711Z" fill="#575B6D" stroke="#2F3A5A" stroke-width="1.6"/>
<path d="M28.134 92.1712C28.134 93.104 27.3778 93.8601 26.445 93.8601C25.5122 93.8601 24.7561 93.104 24.7561 92.1712C24.7561 91.2384 25.5122 90.4822 26.445 90.4822C27.3778 90.4822 28.134 91.2384 28.134 92.1712Z" fill="#BBBBCD" stroke="#2F3A5A" stroke-width="1.6"/>
<path d="M65 48.8353C52.7895 67.2446 39.9123 56.5058 35 48.8353L43.4211 43.0824C48.4737 33.8777 54.6491 39.2471 57.1053 43.0824L65 48.8353Z" fill="#E7ECF0" stroke="#393C44" stroke-width="1.4"/>
</g>
<defs>
<clipPath id="clip0">
<rect width="100" height="100" fill="white"/>
</clipPath>
</defs>
</svg>
