<svg width="100" height="100" viewBox="0 0 100 100" fill="none" xmlns="http://www.w3.org/2000/svg">
<g opacity="0.7">
<path d="M26 63.6922L34.7969 55.7265L40.9008 48.9515H59.3258L65.2031 55.8578L66.8562 65.1336L51.475 86.764L26 63.6922Z" fill="#F3CDA7"/>
<path d="M51.4759 87.5453C51.2821 87.5452 51.0953 87.4731 50.9517 87.343L25.4759 64.2711C25.3951 64.1978 25.3305 64.1085 25.2863 64.0088C25.2421 63.9091 25.2192 63.8012 25.2192 63.6922C25.2192 63.5831 25.2421 63.4753 25.2863 63.3755C25.3305 63.2758 25.3951 63.1865 25.4759 63.1133L34.2431 55.1742L40.3196 48.4289C40.3929 48.3475 40.4824 48.2824 40.5824 48.2379C40.6824 48.1934 40.7906 48.1703 40.9001 48.1703H59.3267C59.4399 48.1702 59.5518 48.1948 59.6546 48.2423C59.7574 48.2898 59.8486 48.359 59.922 48.4453L65.7985 55.3508C65.8884 55.4563 65.9485 55.5838 65.9728 55.7203L67.6259 65C67.6442 65.1021 67.6419 65.2069 67.6192 65.3082C67.5966 65.4095 67.5539 65.5052 67.4939 65.5898L52.1095 87.2164C52.0372 87.3179 51.9417 87.4006 51.8309 87.4577C51.7202 87.5148 51.5974 87.5446 51.4728 87.5445L51.4759 87.5453ZM27.1642 63.6922L51.3485 85.5945L66.0306 64.9484L64.4681 56.2031L58.9618 49.7336H41.2501L35.3774 56.25C35.3598 56.2698 35.341 56.2885 35.3212 56.3062L27.1642 63.6922Z" fill="#2F3A5A"/>
<path d="M91.1336 99.2188C91.2101 91.9091 90.4282 84.6156 88.8039 77.4883C86.0461 65.2781 73.7375 58.8117 65.2032 55.7266V55.8594C65.2032 59.8915 63.6014 63.7585 60.7503 66.6096C57.8991 69.4607 54.0322 71.0625 50 71.0625C45.9679 71.0625 42.1009 69.4607 39.2498 66.6096C36.3987 63.7585 34.7969 59.8915 34.7969 55.8594V55.7266C26.25 58.8117 13.9539 65.2781 11.1961 77.4883C9.5719 84.6156 8.78999 91.9091 8.86644 99.2188H91.1336Z" fill="#E65A69"/>
<path d="M91.1289 99.2187H8.87107C8.84685 97.9273 8.85857 96.5257 8.90779 95.0375H78.4133C78.4831 87.7269 77.6989 80.4333 76.0765 73.3047C74.564 66.5898 70.139 61.5976 65.0609 57.982C65.1599 57.2772 65.2092 56.5664 65.2086 55.8547V55.732C73.7429 58.8062 86.0531 65.275 88.8078 77.4867C90.4319 84.6145 91.211 91.9087 91.1289 99.2187Z" fill="#F26176"/>
<path d="M91.1338 100H8.86663C8.66131 100 8.46423 99.9192 8.31803 99.775C8.17183 99.6309 8.08825 99.435 8.08538 99.2297C8.00714 91.8587 8.79562 84.504 10.4346 77.3172C13.2033 65.0562 25.0666 58.4093 34.5315 54.9914C34.6494 54.9487 34.7759 54.9351 34.9002 54.9517C35.0246 54.9682 35.1431 55.0145 35.2458 55.0865C35.3484 55.1585 35.4323 55.2542 35.4902 55.3655C35.548 55.4767 35.5783 55.6003 35.5783 55.7257V55.8593C35.5783 59.6843 37.0978 63.3525 39.8024 66.0571C42.507 68.7618 46.1753 70.2812 50.0002 70.2812C53.8251 70.2812 57.4934 68.7618 60.198 66.0571C62.9027 63.3525 64.4221 59.6843 64.4221 55.8593V55.7265C64.4221 55.6011 64.4524 55.4775 64.5103 55.3663C64.5682 55.255 64.652 55.1593 64.7547 55.0873C64.8574 55.0152 64.9759 54.969 65.1002 54.9524C65.2245 54.9359 65.351 54.9495 65.469 54.9921C74.9346 58.414 86.7971 65.0656 89.5666 77.3172C91.2056 84.504 91.9941 91.8587 91.9158 99.2297C91.913 99.4351 91.8293 99.6311 91.6829 99.7753C91.5365 99.9195 91.3393 100 91.1338 100ZM9.64085 98.4375H90.3596C90.3728 91.4465 89.5952 84.4764 88.0416 77.6601C85.5276 66.5257 74.8666 60.2265 65.9549 56.8382C65.7069 60.9014 63.918 64.7169 60.9532 67.5063C57.9884 70.2957 54.071 71.8489 50.0002 71.8489C45.9295 71.8489 42.0121 70.2957 39.0472 67.5063C36.0824 64.7169 34.2935 60.9014 34.0455 56.8382C25.1354 60.2226 14.4744 66.5179 11.9588 77.6609C10.4053 84.4769 9.62766 91.4467 9.64085 98.4375Z" fill="#2F3A5A"/>
<path d="M72.623 29.1336C71.0418 28.6703 69.1277 30.9648 68.3488 34.2578C67.5699 37.5507 68.2199 40.5961 69.8019 41.0593C71.384 41.5226 73.2965 39.2273 74.0754 35.9375C74.8543 32.6476 74.2043 29.5961 72.623 29.1336Z" fill="#F3CDA7"/>
<path d="M70.2175 41.8993C70.0027 41.8994 69.7891 41.8686 69.5831 41.8079C67.5456 41.211 66.6878 37.8876 67.5893 34.0735C68.1815 31.5735 69.4268 29.5063 70.8378 28.6829C71.1326 28.4957 71.4631 28.3718 71.8083 28.319C72.1536 28.2663 72.506 28.2859 72.8433 28.3766C74.8808 28.9735 75.7378 32.2969 74.8362 36.111C74.2448 38.611 73.0003 40.6782 71.5893 41.5016C71.1755 41.7536 70.702 41.8909 70.2175 41.8993ZM72.2081 29.8547C72.0002 29.8642 71.7984 29.9281 71.6229 30.0399C70.7729 30.5344 69.6698 32.086 69.1089 34.4368C68.3995 37.4368 69.0057 40.011 70.0222 40.3086C70.1561 40.3375 70.2946 40.3385 70.429 40.3116C70.5634 40.2847 70.6908 40.2305 70.8034 40.1524C71.6534 39.6579 72.7565 38.1071 73.3159 35.7563C74.0261 32.7563 73.4206 30.1821 72.4042 29.8844C72.3405 29.8655 72.2745 29.8558 72.2081 29.8555V29.8547Z" fill="#2F3A5A"/>
<path d="M27.9592 29.1695C29.6193 28.6852 31.5935 30.9664 32.3677 34.2578C33.142 37.5492 32.4232 40.6156 30.7631 41.1C29.1029 41.5844 27.1287 39.3031 26.3545 36.0117C25.5802 32.7203 26.299 29.6539 27.9592 29.1695Z" fill="#F3CDA7"/>
<path d="M30.3079 41.9453C29.7927 41.9365 29.2892 41.7903 28.8493 41.5219C27.4181 40.6867 26.1704 38.643 25.5946 36.1899C24.6993 32.3781 25.6212 29.0375 27.7407 28.4195C28.0993 28.3228 28.4741 28.3018 28.8412 28.3581C29.2083 28.4143 29.5596 28.5465 29.8728 28.7461C31.304 29.5813 32.5525 31.625 33.129 34.0789C34.0243 37.8906 33.1025 41.2313 30.9829 41.85C30.7636 41.9136 30.5363 41.9457 30.3079 41.9453ZM28.415 29.886C28.3357 29.8858 28.2568 29.8968 28.1806 29.9188C27.097 30.2313 26.4118 32.8305 27.1181 35.8321C27.5915 37.8516 28.5821 39.5547 29.64 40.1719C29.7708 40.2622 29.9189 40.3245 30.075 40.3551C30.2311 40.3856 30.3917 40.3836 30.547 40.3492C31.6306 40.0367 32.3157 37.4367 31.6095 34.436C31.1353 32.4156 30.1446 30.7117 29.0868 30.0953C28.8853 29.9674 28.6535 29.8952 28.415 29.886Z" fill="#2F3A5A"/>
<path d="M69.2908 31.896C69.3107 35.6762 68.6277 39.4272 67.2767 42.9578C64.1517 51.0421 57.7392 56.5804 50.3166 56.5804C43.3978 56.5804 37.3416 51.7617 34.0181 44.5687C32.2172 40.5882 31.2995 36.2649 31.3283 31.896C31.3283 18.2734 39.8299 7.20856 50.3166 7.20856C60.7892 7.2109 69.2908 18.2734 69.2908 31.896Z" fill="#F3CDA7"/>
<path d="M50.3164 57.3617C43.3774 57.3617 36.861 52.5851 33.3086 44.8968C31.463 40.8125 30.5209 36.3779 30.5469 31.8961C30.5469 17.8539 39.4157 6.42731 50.3125 6.42731C61.2094 6.42731 70.068 17.8515 70.068 31.8961C70.0931 35.7736 69.3933 39.6217 68.0047 43.2421C64.6422 51.9531 57.8641 57.3617 50.3164 57.3617ZM50.3164 7.99215C40.2766 7.99215 32.1133 18.7156 32.1133 31.8984C32.0872 36.1535 32.9802 40.364 34.7313 44.2421C38.075 51.4804 43.9024 55.8007 50.3204 55.8007C57.2071 55.8007 63.4266 50.7718 66.5516 42.6757C67.8715 39.2356 68.5368 35.5791 68.5133 31.8945C68.5094 18.7156 60.3485 7.99215 50.3164 7.99215Z" fill="#2F3A5A"/>
<path d="M67.2767 42.9578C64.1517 51.0422 57.7392 56.5805 50.3165 56.5805C43.3978 56.5805 37.3415 51.7617 34.0181 44.5688C38.7768 43.1383 43.2334 40.8485 47.1673 37.8125C48.0099 37.1242 49.0531 36.7281 50.1402 36.6835C51.2272 36.639 52.2994 36.9486 53.1954 37.5656C57.4283 40.3906 62.2395 42.233 67.2767 42.9578Z" fill="#E1E6E9"/>
<path d="M50.3162 57.3617C43.3772 57.3617 36.8607 52.5852 33.3084 44.8969C33.262 44.7966 33.2375 44.6876 33.2364 44.5771C33.2352 44.4666 33.2576 44.3571 33.3019 44.2559C33.3462 44.1547 33.4114 44.064 33.4934 43.9899C33.5753 43.9157 33.672 43.8598 33.7772 43.8258C38.4474 42.4311 42.8201 40.1865 46.6756 37.2047C47.6476 36.4069 48.8531 35.9477 50.1096 35.8968C51.366 35.8459 52.6048 36.2061 53.6381 36.9227C57.7785 39.6775 62.4802 41.4759 67.4022 42.1875C67.5168 42.2063 67.6258 42.2504 67.7212 42.3167C67.8166 42.3829 67.896 42.4696 67.9537 42.5704C68.0114 42.6712 68.0459 42.7836 68.0547 42.8994C68.0635 43.0152 68.0463 43.1315 68.0045 43.2399C64.642 51.9531 57.8639 57.3617 50.3162 57.3617ZM35.1076 45.0305C38.5022 51.7922 44.1357 55.8 50.317 55.8C56.949 55.8 62.9631 51.136 66.1889 43.5617C61.3823 42.7453 56.8029 40.9213 52.7514 38.2094C51.9949 37.6858 51.0884 37.4231 50.1691 37.4612C49.2499 37.4992 48.3682 37.836 47.6576 38.4203C43.898 41.3484 39.6489 43.5864 35.1076 45.0305Z" fill="#2F3A5A"/>
<path d="M71.9036 18.6383C71.3692 15.4696 70.3841 13.5539 69.8489 10.386C69.5434 8.57659 69.0372 6.49222 67.3677 5.7305C65.5512 4.90159 63.4458 6.13753 61.4708 6.1094C61.7489 5.44309 61.8061 4.70516 61.6341 4.00394C61.1528 2.2719 59.1755 1.46409 57.4083 1.13597C50.8458 -0.0804391 44.0723 1.9805 38.1411 5.04222C35.7473 6.27894 33.3755 7.73284 31.7505 9.87972C29.6309 12.6735 29.0098 16.2922 28.4903 19.7602C28.064 22.0196 27.9124 24.3222 28.0387 26.618C28.245 28.8297 31.0856 34.1344 31.4262 34.8383C31.9872 32.2336 32.8544 29.3352 34.3684 24.5508C35.9957 22.311 38.3815 20.7389 41.0817 20.1274C43.9528 19.511 46.9692 20.0391 49.8544 19.4914C53.2606 18.8446 57.1395 15.8336 58.8567 12.8328C59.3637 14.1446 58.8231 19.6821 62.2411 20.8797C66.5067 22.3703 68.87 31.0828 68.9598 36.4977C69.5372 33.9063 71.7966 26.0766 71.8833 24.6016C72.0699 22.6185 72.0767 20.6226 71.9036 18.6383Z" fill="#84879C"/>
<path d="M68.963 37.2758C68.9372 37.2758 68.9107 37.2758 68.8849 37.2758C68.6944 37.2567 68.5176 37.1683 68.388 37.0275C68.2584 36.8867 68.185 36.7031 68.1818 36.5117C68.0911 31.2774 65.8318 22.9625 61.9825 21.618C59.0989 20.6102 58.6138 17.1602 58.3771 14.8992C56.2364 17.5297 52.9193 19.7047 49.9997 20.2594C48.5469 20.492 47.0762 20.5942 45.6052 20.5649C44.1445 20.5266 42.6837 20.6363 41.245 20.8922C38.775 21.4555 36.5867 22.881 35.0732 24.9125C33.5935 29.586 32.7411 32.4414 32.1872 35C32.1531 35.1588 32.0703 35.303 31.9503 35.4126C31.8304 35.5221 31.6793 35.5916 31.5181 35.6113C31.3569 35.6309 31.1935 35.5999 31.0508 35.5224C30.908 35.4449 30.793 35.3249 30.7216 35.1789C30.6825 35.1008 30.6114 34.9602 30.5154 34.7727C29.2013 32.2055 27.4349 28.575 27.2575 26.6883C27.1287 24.3298 27.2821 21.9643 27.7146 19.6422C28.2794 15.8727 28.9646 12.2532 31.1255 9.40784C32.9075 7.05784 35.4896 5.53206 37.7794 4.34847C45.0114 0.616435 51.6614 -0.721846 57.5513 0.367997C60.1919 0.85706 61.9091 2.07503 62.3872 3.79534C62.5164 4.26509 62.5512 4.75581 62.4896 5.23909C62.8474 5.17972 63.2169 5.0969 63.5958 5.01175C64.9411 4.71019 66.3302 4.39847 67.6919 5.01956C69.9068 6.02972 70.3872 8.8844 70.6193 10.2539C70.8656 11.6188 71.2015 12.966 71.6247 14.2867C72.0656 15.6688 72.416 17.078 72.6739 18.5055C72.8593 20.4939 72.8593 22.4952 72.6739 24.4836L72.6638 24.6461C72.2071 27.1769 71.6116 29.6807 70.8802 32.1461C70.3966 33.9727 69.9427 35.6977 69.7263 36.6578C69.6889 36.8326 69.5928 36.9893 69.4539 37.1018C69.315 37.2142 69.1417 37.2757 68.963 37.2758ZM53.4653 1.56253C48.8943 1.56253 43.8786 2.96019 38.4989 5.73831C36.3646 6.84065 33.9677 8.25159 32.3732 10.3532C30.4333 12.911 29.8169 16.1797 29.263 19.8766C28.8434 22.0733 28.6936 24.3131 28.8169 26.5461C28.913 27.5797 29.7013 29.6047 31.1607 32.5758C31.7177 30.4219 32.4888 27.8883 33.6224 24.3149C33.6477 24.2338 33.6862 24.1575 33.7364 24.0891C35.4797 21.6982 38.0299 20.0196 40.9154 19.3641C42.4571 19.0853 44.0232 18.9639 45.5896 19.0016C46.9675 19.0321 48.3454 18.9393 49.7068 18.7242C52.7739 18.1414 56.4943 15.3836 58.1771 12.4446C58.2505 12.3166 58.3587 12.212 58.4891 12.143C58.6195 12.0739 58.7668 12.0432 58.914 12.0544C59.0611 12.0656 59.202 12.1183 59.3205 12.2062C59.439 12.2942 59.5301 12.414 59.5833 12.5516C59.7593 13.1566 59.8641 13.7801 59.8958 14.4094C60.0997 16.4 60.4068 19.4094 62.4966 20.1391C66.1411 21.4125 68.3849 26.9907 69.2872 32.0524C69.313 31.9524 69.3396 31.8524 69.3653 31.7524C70.1153 28.9203 71.0482 25.3946 71.1005 24.5532L71.1107 24.3907C71.2854 22.52 71.2919 20.6375 71.1302 18.7657C70.8839 17.4008 70.548 16.0536 70.1247 14.7328C69.6839 13.3508 69.3334 11.9416 69.0755 10.5141C68.7771 8.74378 68.3239 7.02503 67.0443 6.43909C66.1591 6.03518 65.081 6.27737 63.938 6.5344C63.1284 6.74746 62.2968 6.86621 61.4599 6.88831C61.3349 6.88646 61.2122 6.85465 61.1021 6.79557C60.992 6.73649 60.8976 6.65184 60.827 6.54875C60.7564 6.44566 60.7115 6.32712 60.6961 6.2031C60.6808 6.07907 60.6954 5.95317 60.7388 5.83597C60.9588 5.32349 61.0089 4.754 60.8818 4.21097C60.4646 2.71019 58.4372 2.12112 57.2654 1.90472C56.0118 1.67465 54.7398 1.56011 53.4653 1.56253Z" fill="#2F3A5A"/>
</g>
</svg>
