<svg id="Capa_1" enable-background="new 0 0 512 512" height="512" viewBox="0 0 512 512" width="512" xmlns="http://www.w3.org/2000/svg"><g><path d="m329.953 334.906h-147.906c-35.655 0-64.559-28.904-64.559-64.559v-131.835c0-76.498 62.014-138.512 138.512-138.512 76.498 0 138.512 62.014 138.512 138.512v131.835c0 35.655-28.904 64.559-64.559 64.559z" fill="#655e67"/><path d="m256 0c-5.146 0-10.223.29-15.223.836 69.334 7.581 123.289 66.323 123.289 137.675v131.835c0 35.655-28.904 64.559-64.559 64.559h30.446c35.655 0 64.559-28.904 64.559-64.559v-131.834c0-76.498-62.014-138.512-138.512-138.512z" fill="#544f56"/><g><g><path d="m444.581 501.851v-96.303c0-26.146-16.692-49.374-41.473-57.712l-22.28-7.497-9.532 12.016-10.184-18.65-46.127-15.521c-8.26-2.779-13.824-10.522-13.824-19.237v-33.052h-90.323v33.052c0 8.715-5.564 16.458-13.824 19.237l-88.122 29.651c-24.781 8.338-41.473 31.566-41.473 57.712v96.303c0 5.605 4.544 10.149 10.149 10.149h356.864c5.605.001 10.149-4.543 10.149-10.148z" fill="#b3e59f"/><g><path d="m403.108 347.836-22.28-7.497-9.532 12.016-10.184-18.65-46.127-15.521c-8.26-2.779-13.824-10.522-13.824-19.237v-33.053h-90.323v15.223h59.877v33.053c0 8.715 5.564 16.458 13.824 19.237l88.122 29.651c24.781 8.338 41.473 31.566 41.473 57.713v91.229h20.297c5.605 0 10.149-4.544 10.149-10.149v-96.303c.001-26.146-16.691-49.374-41.472-57.712z" fill="#95d6a4"/></g><path d="m196.331 318.415 57.813 57.813c1.585 1.585 4.156 1.585 5.741 0l57.302-57.302-2.202-.741c-8.26-2.779-13.824-10.522-13.824-19.237v-33.053h-90.323v33.053c0 8.715-5.564 16.458-13.824 19.237z" fill="#e2a770"/><path d="m314.986 318.185c-8.26-2.779-13.824-10.522-13.824-19.237v-33.053h-30.446v33.053c-.06 6.117 2.943 12.049 7.685 15.924 3.673 3.001 3.807 8.588.453 11.942l-37.062 37.062 12.353 12.352c1.585 1.585 4.156 1.585 5.741 0l57.302-57.302z" fill="#d5985c"/><path d="m364.451 416.539c1.17.65 2.437.958 3.687.958 2.675 0 5.272-1.414 6.662-3.919 4.983-8.978 10.977-23.562 11.234-42.06.167-12.056-2.118-22.552-5.206-31.178l-19.715-6.634c4.698 8.276 9.927 21.214 9.699 37.601-.212 15.333-5.186 27.434-9.322 34.884-2.041 3.675-.715 8.308 2.961 10.348z" fill="#dfdce0"/><path d="m380.828 340.339-19.715-6.634c3.799 6.693 7.943 16.437 9.27 28.586l2.28.767c4.771 1.606 9.239 3.768 13.349 6.392-.107-11.183-2.276-20.985-5.184-29.111z" fill="#c7c2c9"/><path d="m129.193 407.066c1.222 2.917 4.048 4.674 7.024 4.674.98 0 1.976-.19 2.936-.592 3.878-1.623 5.705-6.083 4.082-9.96-3.582-8.558-5.599-17.525-5.993-26.654-.72-16.649 4.137-30.264 8.653-39.148l-19.132 6.438c-3.075 9.246-5.284 20.539-4.729 33.368.471 10.929 2.88 21.653 7.159 31.874z" fill="#dfdce0"/><circle cx="371.296" cy="436.9" fill="#f1eff1" r="32.773"/><g><path d="m158.213 477.284h-8.53c-4.204 0-7.611-3.408-7.611-7.612s3.408-7.612 7.611-7.612h7.204v-29.65c0-11.398-9.274-20.672-20.672-20.672s-20.672 9.274-20.672 20.672v29.651h7.204c4.204 0 7.611 3.408 7.611 7.612s-3.408 7.612-7.611 7.612h-8.53c-7.663 0-13.896-6.234-13.896-13.897v-30.978c0-19.792 16.103-35.895 35.895-35.895s35.895 16.103 35.895 35.895v30.977c-.001 7.664-6.236 13.897-13.898 13.897z" fill="#f1eff1"/></g></g><g fill="#95d6a4"><circle cx="256" cy="413.051" r="7.611"/><circle cx="256" cy="458.72" r="7.611"/><circle cx="256" cy="504.388" r="7.611"/></g></g><path d="m371.91 187.363h-8.003v-45.204h8.003c12.483 0 22.602 10.119 22.602 22.602 0 12.482-10.119 22.602-22.602 22.602z" fill="#d5985c"/><g><g><path d="m363.907 142.159c0 10.043-12.403 22.601-12.403 22.601s12.398 22.031 12.389 22.602c-.659 42.304-25.663 78.699-61.617 95.793-4.401 2.092-15.16-1.444-15.16-1.444s-10.258 10.01-16.401 10.847c-4.934.673-9.975 1.012-15.098.994-59.638-.206-107.526-49.44-107.526-109.078v-42.316c17.277-1.317 42.653-5.466 70.213-18.609 13.93-6.643 25.428-14.158 34.593-21.16 1.871-1.43 4.417-1.553 6.408-.294 11.788 7.453 26.13 15.311 42.996 22.312 23.255 9.652 44.513 14.854 61.606 17.752z" fill="#e2a770"/></g><g><path d="m333.461 135.259v35.165c0 59.722-48.518 108.113-108.289 107.907-10.963-.038-21.527-1.738-31.472-4.85 17.476 12.551 38.814 19.993 61.918 20.073 59.771.206 108.289-48.184 108.289-107.907 0-19.183 0-24.304 0-43.488-9.079-1.54-19.342-3.739-30.446-6.9z" fill="#d5985c"/></g><g><g><path d="m305.218 188.614c-4.204 0-7.611-3.408-7.611-7.611v-17.412c0-4.204 3.408-7.611 7.611-7.611 4.204 0 7.612 3.408 7.612 7.611v17.412c-.001 4.204-3.409 7.611-7.612 7.611z" fill="#655e67"/></g><g><path d="m206.782 188.614c-4.204 0-7.611-3.408-7.611-7.611v-17.412c0-4.204 3.408-7.611 7.611-7.611 4.204 0 7.611 3.408 7.611 7.611v17.412c.001 4.204-3.407 7.611-7.611 7.611z" fill="#655e67"/></g></g><g><path d="m256.006 246.988c-9.331 0-16.253-3.889-19.622-6.276-3.43-2.431-4.24-7.181-1.81-10.611s7.181-4.24 10.611-1.81c1.944 1.377 6.036 3.652 11.484 3.462 4.83-.173 8.425-2.24 10.138-3.457 3.427-2.435 8.179-1.629 10.613 1.797 2.435 3.427 1.63 8.178-1.797 10.613-3.787 2.691-10.056 5.961-18.408 6.26-.407.015-.811.022-1.209.022z" fill="#d5985c"/></g></g><path d="m140.09 187.363h8.003v-45.204h-8.003c-12.483 0-22.602 10.119-22.602 22.602 0 12.482 10.119 22.602 22.602 22.602z" fill="#d5985c"/></g></svg>